<svg width="144" height="32" viewBox="0 0 144 32" fill="none" xmlns="http://www.w3.org/2000/svg">
    <path d="M139 0H31V32H139C141.761 32 144 29.7614 144 27V5C144 2.23858 141.761 0 139 0Z" fill="#0F1418"/>
    <path d="M43.8653 17.814C43.8653 18.5415 43.8702 19.1836 43.8799 19.7402C43.8897 20.292 43.9214 20.7119 43.9752 21H42.3638C42.4175 20.707 42.4493 20.2847 42.459 19.7329C42.4688 19.1763 42.4737 18.5366 42.4737 17.814V12.6284C42.4737 12.2866 42.4688 11.9692 42.459 11.6763C42.4542 11.3784 42.4444 11.1123 42.4297 10.8779C42.4151 10.6436 42.3931 10.4531 42.3638 10.3066C42.6714 10.2969 42.9962 10.2847 43.3379 10.27C43.6309 10.2603 43.9605 10.2529 44.3267 10.248C44.6978 10.2383 45.0811 10.2334 45.4766 10.2334C46.0674 10.2334 46.6021 10.3018 47.0806 10.4385C47.5591 10.5703 47.9669 10.7729 48.3038 11.0464C48.6407 11.3149 48.8995 11.6519 49.0801 12.0571C49.2657 12.4575 49.3585 12.9238 49.3585 13.4561C49.3585 13.9932 49.2681 14.4766 49.0875 14.9062C48.9117 15.3359 48.6553 15.7021 48.3184 16.0049C47.9864 16.3027 47.5787 16.5322 47.0953 16.6934C46.6168 16.8545 46.0772 16.9351 45.4766 16.9351C45.2081 16.9351 44.9322 16.9302 44.649 16.9204C44.3658 16.9058 44.1045 16.8862 43.8653 16.8618V17.814ZM43.8653 15.7266C44.0997 15.7559 44.3389 15.7754 44.5831 15.7852C44.8272 15.7949 45.0884 15.7998 45.3668 15.7998C45.8795 15.7998 46.3018 15.7412 46.6338 15.624C46.9708 15.5068 47.2369 15.3481 47.4322 15.1479C47.6324 14.9429 47.7715 14.7085 47.8497 14.4448C47.9278 14.1763 47.9669 13.8955 47.9669 13.6025C47.9669 13.3096 47.9229 13.0312 47.835 12.7676C47.752 12.499 47.6104 12.2646 47.4102 12.0645C47.2149 11.8643 46.9537 11.7056 46.6265 11.5884C46.2994 11.4663 45.8917 11.4053 45.4034 11.4053C45.2325 11.4053 45.0787 11.4077 44.942 11.4126C44.8052 11.4126 44.6783 11.415 44.5611 11.4199C44.4439 11.4199 44.3292 11.4224 44.2169 11.4272C44.1045 11.4321 43.9874 11.437 43.8653 11.4419V15.7266ZM52.1825 17.3013C52.1825 17.7261 52.2338 18.1069 52.3363 18.4438C52.4388 18.7808 52.5829 19.0664 52.7684 19.3008C52.9589 19.5303 53.1835 19.7061 53.4423 19.8281C53.7011 19.9502 53.9891 20.0112 54.3065 20.0112C54.5995 20.0112 54.8754 19.9502 55.1342 19.8281C55.3929 19.7061 55.6176 19.5303 55.808 19.3008C56.0033 19.0664 56.1547 18.7808 56.2621 18.4438C56.3744 18.1069 56.4305 17.7261 56.4305 17.3013C56.4305 16.8716 56.3793 16.4883 56.2767 16.1514C56.1742 15.8096 56.0277 15.5215 55.8373 15.2871C55.6517 15.0479 55.4271 14.8672 55.1635 14.7451C54.9047 14.6182 54.619 14.5547 54.3065 14.5547C54.0087 14.5547 53.7304 14.6182 53.4716 14.7451C53.2128 14.8672 52.9882 15.0479 52.7977 15.2871C52.6073 15.5215 52.4559 15.8096 52.3436 16.1514C52.2362 16.4883 52.1825 16.8716 52.1825 17.3013ZM50.8275 17.3013C50.8275 16.6714 50.9227 16.1147 51.1132 15.6313C51.3036 15.1431 51.5599 14.7329 51.8822 14.4009C52.2045 14.064 52.5804 13.8101 53.0101 13.6392C53.4398 13.4683 53.8964 13.3828 54.3798 13.3828C54.8827 13.3828 55.3417 13.4683 55.7567 13.6392C56.1766 13.8101 56.5355 14.064 56.8334 14.4009C57.1361 14.7329 57.3705 15.1431 57.5365 15.6313C57.7025 16.1147 57.7855 16.6714 57.7855 17.3013C57.7855 17.9312 57.6903 18.4878 57.4999 18.9712C57.3095 19.4546 57.0531 19.8599 56.7308 20.187C56.4086 20.5142 56.0326 20.7632 55.6029 20.9341C55.1732 21.1001 54.7167 21.1831 54.2333 21.1831C53.7304 21.1831 53.2689 21.1001 52.849 20.9341C52.434 20.7632 52.0751 20.5142 51.7723 20.187C51.4745 19.8599 51.2426 19.4546 51.0765 18.9712C50.9105 18.4878 50.8275 17.9312 50.8275 17.3013ZM65.5827 21H64.2277V16.8252C64.2277 16.3711 64.2106 16.0049 64.1765 15.7266C64.1423 15.4434 64.0837 15.2236 64.0007 15.0674C63.9226 14.9062 63.8151 14.7988 63.6784 14.7451C63.5417 14.6914 63.3708 14.6646 63.1657 14.6646C62.9851 14.6646 62.8044 14.7012 62.6237 14.7744C62.4431 14.8477 62.2697 14.9526 62.1037 15.0894C61.9426 15.2212 61.7912 15.3799 61.6496 15.5654C61.5129 15.7461 61.3957 15.9463 61.298 16.166V21H59.9431V16.4956C59.9431 15.7729 59.9016 15.1626 59.8186 14.6646C59.7355 14.1616 59.655 13.7832 59.5769 13.5293H60.8952C60.9489 13.6855 60.9953 13.8711 61.0344 14.0859C61.0734 14.2959 61.1052 14.4888 61.1296 14.6646C61.3542 14.4058 61.569 14.1934 61.7741 14.0273C61.9792 13.8613 62.1818 13.7319 62.382 13.6392C62.5871 13.5415 62.7897 13.4756 62.9899 13.4414C63.1901 13.4023 63.3952 13.3828 63.6052 13.3828C63.8444 13.3828 64.0617 13.417 64.257 13.4854C64.4523 13.5537 64.6232 13.644 64.7697 13.7563C64.9211 13.8687 65.0505 14.0005 65.1579 14.1519C65.2653 14.2983 65.3483 14.4521 65.4069 14.6133C65.6364 14.3643 65.8586 14.1616 66.0734 14.0054C66.2883 13.8442 66.4982 13.7197 66.7033 13.6318C66.9084 13.5391 67.1086 13.4756 67.3039 13.4414C67.5041 13.4023 67.6994 13.3828 67.8898 13.3828C68.2609 13.3828 68.5734 13.4438 68.8273 13.5659C69.0812 13.6831 69.2839 13.8589 69.4353 14.0933C69.5915 14.3276 69.7014 14.6182 69.7648 14.9648C69.8332 15.3115 69.8674 15.7119 69.8674 16.166V21H68.5124V16.9717C68.5124 16.498 68.4953 16.1123 68.4611 15.8145C68.427 15.5166 68.3684 15.2822 68.2854 15.1113C68.2072 14.9404 68.0998 14.8232 67.9631 14.7598C67.8264 14.6963 67.6555 14.6646 67.4504 14.6646C67.2697 14.6646 67.0915 14.7012 66.9157 14.7744C66.7399 14.8428 66.569 14.9429 66.403 15.0747C66.2419 15.2017 66.0905 15.3579 65.9489 15.5435C65.8122 15.729 65.6901 15.9365 65.5827 16.166V21ZM73.6802 19.0957C73.9292 19.2715 74.1441 19.418 74.3247 19.5352C74.5103 19.6475 74.6787 19.7378 74.8301 19.8062C74.9815 19.8696 75.1255 19.9136 75.2622 19.938C75.4038 19.9624 75.5601 19.9746 75.731 19.9746C75.9898 19.9746 76.2363 19.9136 76.4707 19.7915C76.71 19.6694 76.9199 19.4937 77.1006 19.2642C77.2862 19.0298 77.4326 18.749 77.5401 18.4219C77.6524 18.0898 77.7085 17.7163 77.7085 17.3013C77.7085 16.896 77.6695 16.5298 77.5913 16.2026C77.5181 15.8706 77.4082 15.5898 77.2617 15.3604C77.1153 15.126 76.937 14.9453 76.7271 14.8184C76.522 14.6914 76.2876 14.6279 76.0239 14.6279C75.814 14.6279 75.5991 14.6743 75.3794 14.7671C75.1597 14.8599 74.9448 14.9966 74.7349 15.1772C74.5298 15.3579 74.3369 15.585 74.1563 15.8584C73.9756 16.127 73.8169 16.437 73.6802 16.7886V19.0957ZM73.2774 13.5293C73.3311 13.6562 73.3848 13.8369 73.4385 14.0713C73.4922 14.3008 73.5362 14.584 73.5703 14.9209C73.7412 14.6963 73.9268 14.4888 74.127 14.2983C74.3321 14.1079 74.5469 13.9468 74.7715 13.8149C75.001 13.6782 75.2403 13.5732 75.4893 13.5C75.7432 13.4219 76.0069 13.3828 76.2803 13.3828C76.6953 13.3828 77.0737 13.4756 77.4155 13.6611C77.7622 13.8418 78.0552 14.0981 78.2945 14.4302C78.5386 14.7573 78.7266 15.1479 78.8584 15.6021C78.9951 16.0513 79.0635 16.5444 79.0635 17.0815C79.0635 17.7065 78.9756 18.2729 78.7998 18.7808C78.624 19.2837 78.3848 19.7134 78.0821 20.0698C77.7842 20.4263 77.4326 20.7021 77.0274 20.8975C76.6221 21.0879 76.19 21.1831 75.731 21.1831C75.5357 21.1831 75.3501 21.1636 75.1743 21.1245C75.0034 21.0854 74.835 21.0317 74.669 20.9634C74.5078 20.895 74.3467 20.812 74.1856 20.7144C74.0244 20.6118 73.856 20.4995 73.6802 20.3774V22.0986C73.6802 22.3916 73.6826 22.6553 73.6875 22.8896C73.6973 23.1289 73.7095 23.3486 73.7241 23.5488C73.7388 23.749 73.7583 23.9321 73.7827 24.0981C73.8071 24.269 73.834 24.4326 73.8633 24.5889H72.3252V17.4478C72.3252 16.9937 72.3203 16.5737 72.3106 16.188C72.3057 15.7974 72.291 15.4409 72.2666 15.1187C72.2422 14.7915 72.2056 14.4961 72.1568 14.2324C72.1079 13.9688 72.042 13.7344 71.959 13.5293H73.2774ZM85.9818 14.7012C85.8597 14.6768 85.6815 14.6475 85.4471 14.6133C85.2176 14.5742 84.9198 14.5547 84.5536 14.5547C84.075 14.5547 83.6746 14.6523 83.3524 14.8477C83.035 15.0381 82.7811 15.2944 82.5907 15.6167C82.4002 15.9341 82.2635 16.3003 82.1805 16.7153C82.1024 17.1304 82.0633 17.5576 82.0633 17.9971C82.0633 18.2803 82.0902 18.5415 82.1439 18.7808C82.2025 19.0151 82.2806 19.2202 82.3783 19.396C82.4759 19.5669 82.5882 19.7012 82.7152 19.7988C82.8421 19.8916 82.9788 19.938 83.1253 19.938C83.2865 19.938 83.45 19.8843 83.6161 19.7769C83.787 19.6694 83.953 19.5254 84.1141 19.3447C84.2801 19.1592 84.4412 18.9468 84.5975 18.7075C84.7537 18.4683 84.9002 18.2168 85.037 17.9531C85.1737 17.6846 85.3006 17.4136 85.4178 17.1401C85.535 16.8667 85.6351 16.6079 85.7181 16.3638C85.8011 16.1147 85.8646 15.8877 85.9085 15.6826C85.9574 15.4775 85.9818 15.3091 85.9818 15.1772V14.7012ZM86.5311 21C86.4774 20.8828 86.4286 20.707 86.3846 20.4727C86.3455 20.2383 86.3114 19.9868 86.2821 19.7183C86.2577 19.4448 86.2381 19.1787 86.2235 18.9199C86.2088 18.6611 86.2015 18.4512 86.2015 18.29V17.5576C86.0453 17.9727 85.8573 18.395 85.6375 18.8247C85.4227 19.2544 85.1761 19.645 84.8978 19.9966C84.6195 20.3433 84.3119 20.6289 83.9749 20.8535C83.6429 21.0732 83.2865 21.1831 82.9056 21.1831C82.598 21.1831 82.3099 21.1147 82.0413 20.978C81.7728 20.8413 81.5384 20.6387 81.3382 20.3701C81.1429 20.1016 80.9891 19.7695 80.8768 19.374C80.7645 18.9736 80.7083 18.5146 80.7083 17.9971C80.7083 17.416 80.7865 16.8496 80.9427 16.2979C81.099 15.7412 81.3382 15.248 81.6605 14.8184C81.9828 14.3838 82.3929 14.0371 82.891 13.7783C83.389 13.5146 83.9798 13.3828 84.6634 13.3828C85.1371 13.3828 85.6082 13.4146 86.077 13.478C86.5457 13.5366 86.9657 13.6147 87.3368 13.7124V17.1182C87.3368 18.041 87.3807 18.8174 87.4686 19.4473C87.5565 20.0723 87.6712 20.5898 87.8128 21H86.5311ZM89.8239 17.6675V12.6284C89.8239 12.2866 89.819 11.9692 89.8092 11.6763C89.8044 11.3784 89.7946 11.1123 89.7799 10.8779C89.7653 10.6436 89.7433 10.4531 89.714 10.3066C89.8166 10.3018 89.946 10.2969 90.1022 10.292C90.2633 10.2822 90.4391 10.2749 90.6296 10.27C90.8249 10.2651 91.0275 10.2603 91.2375 10.2554C91.4523 10.2505 91.6647 10.248 91.8747 10.248C92.0895 10.2432 92.297 10.2407 92.4972 10.2407C92.6974 10.2358 92.8805 10.2334 93.0465 10.2334C93.2419 10.2334 93.464 10.2456 93.713 10.27C93.967 10.2896 94.2306 10.3311 94.5041 10.3945C94.7824 10.458 95.0656 10.5483 95.3537 10.6655C95.6466 10.7778 95.9274 10.9268 96.196 11.1123C96.4694 11.2979 96.7257 11.5225 96.965 11.7861C97.2043 12.0498 97.4118 12.3623 97.5876 12.7236C97.7682 13.085 97.9098 13.5024 98.0124 13.9761C98.1198 14.4448 98.1735 14.9795 98.1735 15.5801C98.1735 16.3076 98.0929 16.9497 97.9318 17.5063C97.7707 18.0581 97.5534 18.5366 97.2799 18.9419C97.0114 19.3472 96.6989 19.6865 96.3424 19.96C95.986 20.2334 95.6125 20.4531 95.2218 20.6191C94.8312 20.7852 94.4357 20.9023 94.0353 20.9707C93.6349 21.0391 93.2565 21.0732 92.9001 21.0732C92.7829 21.0732 92.6462 21.0708 92.4899 21.0659C92.3385 21.0659 92.1774 21.0635 92.0065 21.0586C91.8356 21.0586 91.6598 21.0562 91.4792 21.0513C91.2985 21.0464 91.1227 21.0415 90.9518 21.0366C90.5514 21.0269 90.1388 21.0146 89.714 21C89.7433 20.8535 89.7629 20.6655 89.7726 20.436C89.7873 20.2065 89.797 19.9478 89.8019 19.6597C89.8117 19.3716 89.8166 19.0591 89.8166 18.7222C89.8214 18.3804 89.8239 18.0288 89.8239 17.6675ZM91.2155 19.7915C91.3864 19.8062 91.6086 19.8232 91.882 19.8428C92.1603 19.8574 92.4753 19.8647 92.8268 19.8647C93.154 19.8647 93.4762 19.833 93.7936 19.7695C94.1159 19.7061 94.4211 19.606 94.7091 19.4692C95.0021 19.3276 95.2731 19.147 95.5221 18.9272C95.7712 18.7075 95.986 18.4463 96.1667 18.1436C96.3473 17.8359 96.4889 17.4819 96.5915 17.0815C96.694 16.6812 96.7453 16.2295 96.7453 15.7266C96.7453 14.9062 96.6403 14.2202 96.4303 13.6685C96.2253 13.1167 95.9469 12.6748 95.5954 12.3428C95.2438 12.0059 94.8312 11.7666 94.3576 11.625C93.8888 11.4785 93.3908 11.4053 92.8634 11.4053C92.7414 11.4053 92.6046 11.4077 92.4533 11.4126C92.3019 11.4126 92.1481 11.415 91.9919 11.4199C91.8405 11.4248 91.6964 11.4297 91.5597 11.4346C91.423 11.4346 91.3083 11.437 91.2155 11.4419V19.7915ZM101.291 17.3013C101.291 17.7261 101.342 18.1069 101.444 18.4438C101.547 18.7808 101.691 19.0664 101.876 19.3008C102.067 19.5303 102.291 19.7061 102.55 19.8281C102.809 19.9502 103.097 20.0112 103.415 20.0112C103.708 20.0112 103.983 19.9502 104.242 19.8281C104.501 19.7061 104.726 19.5303 104.916 19.3008C105.111 19.0664 105.263 18.7808 105.37 18.4438C105.482 18.1069 105.539 17.7261 105.539 17.3013C105.539 16.8716 105.487 16.4883 105.385 16.1514C105.282 15.8096 105.136 15.5215 104.945 15.2871C104.76 15.0479 104.535 14.8672 104.271 14.7451C104.013 14.6182 103.727 14.5547 103.415 14.5547C103.117 14.5547 102.838 14.6182 102.58 14.7451C102.321 14.8672 102.096 15.0479 101.906 15.2871C101.715 15.5215 101.564 15.8096 101.452 16.1514C101.344 16.4883 101.291 16.8716 101.291 17.3013ZM99.9355 17.3013C99.9355 16.6714 100.031 16.1147 100.221 15.6313C100.412 15.1431 100.668 14.7329 100.99 14.4009C101.312 14.064 101.688 13.8101 102.118 13.6392C102.548 13.4683 103.004 13.3828 103.488 13.3828C103.991 13.3828 104.45 13.4683 104.865 13.6392C105.285 13.8101 105.644 14.064 105.941 14.4009C106.244 14.7329 106.479 15.1431 106.645 15.6313C106.811 16.1147 106.894 16.6714 106.894 17.3013C106.894 17.9312 106.798 18.4878 106.608 18.9712C106.417 19.4546 106.161 19.8599 105.839 20.187C105.517 20.5142 105.141 20.7632 104.711 20.9341C104.281 21.1001 103.825 21.1831 103.341 21.1831C102.838 21.1831 102.377 21.1001 101.957 20.9341C101.542 20.7632 101.183 20.5142 100.88 20.187C100.583 19.8599 100.351 19.4546 100.185 18.9712C100.019 18.4878 99.9355 17.9312 99.9355 17.3013ZM114.105 21V16.9717C114.105 16.5127 114.073 16.1343 114.01 15.8364C113.951 15.5386 113.861 15.3042 113.739 15.1333C113.621 14.9575 113.47 14.8354 113.284 14.7671C113.104 14.6987 112.889 14.6646 112.64 14.6646C112.376 14.6646 112.117 14.728 111.864 14.855C111.615 14.9771 111.385 15.1382 111.175 15.3384C110.965 15.5337 110.78 15.7559 110.618 16.0049C110.457 16.2539 110.338 16.5029 110.26 16.752V21H108.905V16.4956C108.905 15.7729 108.863 15.1626 108.78 14.6646C108.702 14.1616 108.621 13.7832 108.538 13.5293H109.857C109.886 13.6074 109.915 13.71 109.945 13.8369C109.974 13.959 110.001 14.0884 110.025 14.2251C110.05 14.3618 110.072 14.4961 110.091 14.6279L110.15 14.9575C110.614 14.4009 111.082 14.0005 111.556 13.7563C112.03 13.5073 112.525 13.3828 113.043 13.3828C113.824 13.3828 114.422 13.6392 114.837 14.1519C115.252 14.6597 115.46 15.4165 115.46 16.4224V21H114.105ZM119.126 19.0957C119.375 19.2715 119.59 19.418 119.771 19.5352C119.956 19.6475 120.125 19.7378 120.276 19.8062C120.427 19.8696 120.571 19.9136 120.708 19.938C120.85 19.9624 121.006 19.9746 121.177 19.9746C121.436 19.9746 121.682 19.9136 121.917 19.7915C122.156 19.6694 122.366 19.4937 122.547 19.2642C122.732 19.0298 122.879 18.749 122.986 18.4219C123.098 18.0898 123.154 17.7163 123.154 17.3013C123.154 16.896 123.115 16.5298 123.037 16.2026C122.964 15.8706 122.854 15.5898 122.708 15.3604C122.561 15.126 122.383 14.9453 122.173 14.8184C121.968 14.6914 121.734 14.6279 121.47 14.6279C121.26 14.6279 121.045 14.6743 120.825 14.7671C120.606 14.8599 120.391 14.9966 120.181 15.1772C119.976 15.3579 119.783 15.585 119.602 15.8584C119.422 16.127 119.263 16.437 119.126 16.7886V19.0957ZM118.723 13.5293C118.777 13.6562 118.831 13.8369 118.884 14.0713C118.938 14.3008 118.982 14.584 119.016 14.9209C119.187 14.6963 119.373 14.4888 119.573 14.2983C119.778 14.1079 119.993 13.9468 120.217 13.8149C120.447 13.6782 120.686 13.5732 120.935 13.5C121.189 13.4219 121.453 13.3828 121.726 13.3828C122.141 13.3828 122.52 13.4756 122.861 13.6611C123.208 13.8418 123.501 14.0981 123.74 14.4302C123.984 14.7573 124.172 15.1479 124.304 15.6021C124.441 16.0513 124.509 16.5444 124.509 17.0815C124.509 17.7065 124.422 18.2729 124.246 18.7808C124.07 19.2837 123.831 19.7134 123.528 20.0698C123.23 20.4263 122.879 20.7021 122.473 20.8975C122.068 21.0879 121.636 21.1831 121.177 21.1831C120.982 21.1831 120.796 21.1636 120.62 21.1245C120.449 21.0854 120.281 21.0317 120.115 20.9634C119.954 20.895 119.793 20.812 119.631 20.7144C119.47 20.6118 119.302 20.4995 119.126 20.3774V22.0986C119.126 22.3916 119.129 22.6553 119.133 22.8896C119.143 23.1289 119.155 23.3486 119.17 23.5488C119.185 23.749 119.204 23.9321 119.229 24.0981C119.253 24.269 119.28 24.4326 119.309 24.5889H117.771V17.4478C117.771 16.9937 117.766 16.5737 117.756 16.188C117.752 15.7974 117.737 15.4409 117.713 15.1187C117.688 14.7915 117.651 14.4961 117.603 14.2324C117.554 13.9688 117.488 13.7344 117.405 13.5293H118.723ZM131.428 14.7012C131.306 14.6768 131.127 14.6475 130.893 14.6133C130.664 14.5742 130.366 14.5547 129.999 14.5547C129.521 14.5547 129.121 14.6523 128.798 14.8477C128.481 15.0381 128.227 15.2944 128.037 15.6167C127.846 15.9341 127.709 16.3003 127.626 16.7153C127.548 17.1304 127.509 17.5576 127.509 17.9971C127.509 18.2803 127.536 18.5415 127.59 18.7808C127.648 19.0151 127.727 19.2202 127.824 19.396C127.922 19.5669 128.034 19.7012 128.161 19.7988C128.288 19.8916 128.425 19.938 128.571 19.938C128.732 19.938 128.896 19.8843 129.062 19.7769C129.233 19.6694 129.399 19.5254 129.56 19.3447C129.726 19.1592 129.887 18.9468 130.043 18.7075C130.2 18.4683 130.346 18.2168 130.483 17.9531C130.62 17.6846 130.747 17.4136 130.864 17.1401C130.981 16.8667 131.081 16.6079 131.164 16.3638C131.247 16.1147 131.31 15.8877 131.354 15.6826C131.403 15.4775 131.428 15.3091 131.428 15.1772V14.7012ZM131.977 21C131.923 20.8828 131.874 20.707 131.831 20.4727C131.791 20.2383 131.757 19.9868 131.728 19.7183C131.704 19.4448 131.684 19.1787 131.669 18.9199C131.655 18.6611 131.647 18.4512 131.647 18.29V17.5576C131.491 17.9727 131.303 18.395 131.083 18.8247C130.869 19.2544 130.622 19.645 130.344 19.9966C130.065 20.3433 129.758 20.6289 129.421 20.8535C129.089 21.0732 128.732 21.1831 128.352 21.1831C128.044 21.1831 127.756 21.1147 127.487 20.978C127.219 20.8413 126.984 20.6387 126.784 20.3701C126.589 20.1016 126.435 19.7695 126.323 19.374C126.21 18.9736 126.154 18.5146 126.154 17.9971C126.154 17.416 126.232 16.8496 126.389 16.2979C126.545 15.7412 126.784 15.248 127.106 14.8184C127.429 14.3838 127.839 14.0371 128.337 13.7783C128.835 13.5146 129.426 13.3828 130.109 13.3828C130.583 13.3828 131.054 13.4146 131.523 13.478C131.992 13.5366 132.412 13.6147 132.783 13.7124V17.1182C132.783 18.041 132.827 18.8174 132.914 19.4473C133.002 20.0723 133.117 20.5898 133.259 21H131.977Z" fill="white"/>
    <path d="M139 0H5C2.23858 0 0 2.23858 0 5V27C0 29.7614 2.23857 32 5 32H139C141.761 32 144 29.7614 144 27V5C144 2.23858 141.761 0 139 0Z" fill="url(#paint0_linear_20_2)"/>
    <path d="M31 0H5C2.23858 0 0 2.23858 0 5V27C0 29.7614 2.23858 32 5 32H31V0Z" fill="#035BDA"/>
    <path d="M15 4C16.2855 4 24.75 8.887 25.3905 10C26.0347 11.113 26.0347 20.887 25.3905 22C24.7462 23.113 16.2847 28 15 28C13.7145 28 5.24999 23.113 4.60574 22C3.96524 20.887 3.96524 11.113 4.60574 10C5.24999 8.887 13.7152 4 15 4ZM17.2972 10.801C17.263 10.8005 17.2291 10.8068 17.1974 10.8196C17.1656 10.8323 17.1367 10.8512 17.1124 10.8752C17.088 10.8992 17.0687 10.9278 17.0555 10.9594C17.0423 10.9909 17.0355 11.0248 17.0355 11.059V14.9342H12.9652V10.9067H13.6642C13.6979 10.9067 13.7312 10.8999 13.7623 10.8868C13.7933 10.8738 13.8215 10.8547 13.8451 10.8307C13.8688 10.8068 13.8874 10.7783 13.9 10.7471C13.9126 10.7158 13.9189 10.6824 13.9185 10.6487C13.9184 10.605 13.9072 10.5621 13.8861 10.5238C13.865 10.4855 13.8346 10.4532 13.7977 10.4297L12.2235 8.92225C12.1964 8.88813 12.162 8.86057 12.1228 8.84161C12.0835 8.82265 12.0406 8.81279 11.997 8.81275C11.9567 8.8133 11.917 8.82312 11.8811 8.84146C11.8453 8.8598 11.8141 8.88616 11.79 8.9185L10.11 10.4305C10.0618 10.4598 10.0246 10.5042 10.004 10.5568C9.98353 10.6093 9.98087 10.6672 9.99648 10.7214C10.0121 10.7756 10.0451 10.8232 10.0904 10.8569C10.1357 10.8905 10.1908 10.9083 10.2472 10.9075H10.9507L10.9582 20.9425C10.9582 21.0872 11.0677 21.2005 11.2125 21.2005H12.705C12.7389 21.2006 12.7725 21.194 12.8038 21.1811C12.8352 21.1681 12.8637 21.1491 12.8876 21.1252C12.9116 21.1012 12.9306 21.0727 12.9436 21.0413C12.9565 21.01 12.9631 20.9764 12.963 20.9425V16.9382H17.037V21.0903H16.338C16.2816 21.0895 16.2265 21.1073 16.1811 21.1409C16.1358 21.1745 16.1028 21.2221 16.0872 21.2763C16.0716 21.3306 16.0743 21.3884 16.0948 21.441C16.1153 21.4936 16.1525 21.5379 16.2007 21.5672L17.7787 23.0793C17.8215 23.1415 17.9197 23.1887 18.0052 23.1887C18.0907 23.1887 18.1612 23.1415 18.2122 23.0793L19.8922 21.5672C19.9293 21.544 19.9599 21.5117 19.981 21.4734C20.0021 21.4351 20.0132 21.392 20.013 21.3483C20.0124 21.28 19.985 21.2147 19.9368 21.1665C19.8885 21.1182 19.8232 21.0908 19.755 21.0903H19.0515L19.044 11.059C19.0449 11.025 19.039 10.9912 19.0266 10.9595C19.0143 10.9278 18.9957 10.899 18.972 10.8746C18.9483 10.8502 18.92 10.8308 18.8887 10.8175C18.8574 10.8042 18.8237 10.7973 18.7897 10.7972H17.2972V10.801Z" fill="white"/>
    <path d="M4 4H27V28H4V4Z" fill="#035BDA"/>
    <path fill-rule="evenodd" clip-rule="evenodd" d="M15.4198 11.529L15.1932 10.4089L5.18457 8.94421L8.39727 14.0276L9.05627 14.1138L10.7449 16.9785L12.2689 17.1724L15.4816 25.0129L18.6118 17.1724L20.177 17.0431L21.8657 14.1137L22.4423 14.0276L25.7168 8.94421L15.6875 10.4089L15.4198 11.529Z" fill="white"/>
    <path fill-rule="evenodd" clip-rule="evenodd" d="M13.8745 11.8325L8.14709 10.7535L9.30085 12.6095L12.6796 13.0842L13.0093 14.2928L10.7842 14.0769L11.6494 15.5875L13.4418 15.7386L15.5021 22.1266L17.5417 15.7386L19.3546 15.5875L20.2199 14.077L17.9949 14.2928L18.3245 13.0842L21.7033 12.6094L22.8776 10.7535L17.0884 11.8325L15.4814 18.2204L13.8745 11.8325Z" fill="#1F69FF"/>
    <defs>
    <linearGradient id="paint0_linear_20_2" x1="0" y1="0" x2="0" y2="32" gradientUnits="userSpaceOnUse">
    <stop stop-color="#BBBBBB" stop-opacity="0.1"/>
    <stop offset="1" stop-opacity="0.1"/>
    </linearGradient>
    </defs>
    </svg>
    