<svg width="144" height="32" viewBox="0 0 144 32" fill="none" xmlns="http://www.w3.org/2000/svg">
    <path d="M139 0H31V32H139C141.761 32 144 29.7614 144 27V5C144 2.23858 141.761 0 139 0Z" fill="#0F1418"/>
    <path d="M57.0562 19.9746C56.8414 20.1748 56.5899 20.3506 56.3018 20.502C56.0137 20.6484 55.711 20.7729 55.3936 20.8755C55.0811 20.978 54.7637 21.0537 54.4415 21.1025C54.1192 21.1562 53.8189 21.1831 53.5406 21.1831C52.7984 21.1831 52.1319 21.0586 51.5411 20.8096C50.9503 20.5557 50.4473 20.1968 50.0323 19.7329C49.6172 19.2642 49.2974 18.6978 49.0728 18.0337C48.8531 17.3696 48.7432 16.625 48.7432 15.7998C48.7432 14.8574 48.8799 14.0322 49.1534 13.3242C49.4268 12.6113 49.7906 12.0181 50.2447 11.5444C50.7037 11.0708 51.231 10.7168 51.8267 10.4824C52.4224 10.2432 53.0425 10.1235 53.6871 10.1235C53.9507 10.1235 54.2193 10.1406 54.4927 10.1748C54.7662 10.209 55.0396 10.2651 55.313 10.3433C55.5914 10.4214 55.8672 10.5264 56.1407 10.6582C56.4141 10.79 56.6827 10.9536 56.9463 11.1489L56.5069 12.4673C56.2774 12.2622 56.043 12.0889 55.8038 11.9473C55.5645 11.8057 55.3253 11.6934 55.086 11.6104C54.8467 11.5225 54.6075 11.4614 54.3682 11.4272C54.1338 11.3882 53.9068 11.3687 53.6871 11.3687C53.1744 11.3687 52.7032 11.459 52.2735 11.6396C51.8438 11.8154 51.4727 12.0815 51.1602 12.438C50.8526 12.7944 50.6109 13.2388 50.4351 13.771C50.2593 14.2983 50.1714 14.9136 50.1714 15.6167C50.1714 16.2759 50.2569 16.8691 50.4278 17.3965C50.6036 17.9238 50.8428 18.373 51.1456 18.7441C51.4532 19.1152 51.817 19.4009 52.2369 19.6011C52.6568 19.8013 53.1158 19.9014 53.6138 19.9014C53.8921 19.9014 54.1729 19.8696 54.4561 19.8062C54.7442 19.7427 55.025 19.6523 55.2984 19.5352C55.5718 19.4131 55.8331 19.269 56.0821 19.103C56.3311 18.937 56.5582 18.7515 56.7632 18.5464L57.0562 19.9746ZM60.2098 17.3013C60.2098 17.7261 60.2611 18.1069 60.3637 18.4438C60.4662 18.7808 60.6102 19.0664 60.7958 19.3008C60.9862 19.5303 61.2108 19.7061 61.4696 19.8281C61.7284 19.9502 62.0165 20.0112 62.3339 20.0112C62.6268 20.0112 62.9027 19.9502 63.1615 19.8281C63.4203 19.7061 63.6449 19.5303 63.8353 19.3008C64.0306 19.0664 64.182 18.7808 64.2894 18.4438C64.4017 18.1069 64.4579 17.7261 64.4579 17.3013C64.4579 16.8716 64.4066 16.4883 64.3041 16.1514C64.2015 15.8096 64.0551 15.5215 63.8646 15.2871C63.6791 15.0479 63.4545 14.8672 63.1908 14.7451C62.932 14.6182 62.6464 14.5547 62.3339 14.5547C62.036 14.5547 61.7577 14.6182 61.4989 14.7451C61.2401 14.8672 61.0155 15.0479 60.8251 15.2871C60.6346 15.5215 60.4833 15.8096 60.371 16.1514C60.2636 16.4883 60.2098 16.8716 60.2098 17.3013ZM58.8549 17.3013C58.8549 16.6714 58.9501 16.1147 59.1405 15.6313C59.3309 15.1431 59.5873 14.7329 59.9095 14.4009C60.2318 14.064 60.6078 13.8101 61.0375 13.6392C61.4672 13.4683 61.9237 13.3828 62.4071 13.3828C62.91 13.3828 63.369 13.4683 63.7841 13.6392C64.204 13.8101 64.5629 14.064 64.8607 14.4009C65.1635 14.7329 65.3978 15.1431 65.5638 15.6313C65.7299 16.1147 65.8129 16.6714 65.8129 17.3013C65.8129 17.9312 65.7177 18.4878 65.5272 18.9712C65.3368 19.4546 65.0804 19.8599 64.7582 20.187C64.4359 20.5142 64.0599 20.7632 63.6303 20.9341C63.2006 21.1001 62.744 21.1831 62.2606 21.1831C61.7577 21.1831 61.2963 21.1001 60.8763 20.9341C60.4613 20.7632 60.1024 20.5142 59.7997 20.187C59.5018 19.8599 59.2699 19.4546 59.1039 18.9712C58.9379 18.4878 58.8549 17.9312 58.8549 17.3013ZM72.8776 15.1772C72.697 15.0796 72.5285 14.9966 72.3723 14.9282C72.216 14.8599 72.0622 14.8037 71.9108 14.7598C71.7595 14.7158 71.6057 14.6841 71.4494 14.6646C71.2932 14.6401 71.1223 14.6279 70.9367 14.6279C70.6584 14.6279 70.3923 14.6914 70.1384 14.8184C69.8845 14.9453 69.6574 15.1284 69.4572 15.3677C69.2619 15.6069 69.1057 15.8999 68.9885 16.2466C68.8713 16.5884 68.8127 16.9766 68.8127 17.4111C68.8127 18.2656 68.9567 18.9126 69.2448 19.3521C69.5378 19.7915 70.0041 20.0112 70.6437 20.0112C70.8684 20.0112 71.0905 19.9551 71.3103 19.8428C71.5349 19.7305 71.7448 19.584 71.9401 19.4033C72.1403 19.2227 72.321 19.0176 72.4821 18.7881C72.6433 18.5537 72.7751 18.3145 72.8776 18.0703V15.1772ZM74.2326 17.1182C74.2326 18.041 74.2839 18.8174 74.3864 19.4473C74.4938 20.0723 74.6257 20.5898 74.7819 21H73.4636C73.4099 20.873 73.3439 20.6851 73.2658 20.436C73.1926 20.1821 73.1242 19.9185 73.0607 19.645C72.7092 20.1431 72.3112 20.5239 71.8669 20.7876C71.4226 21.0513 70.9294 21.1831 70.3874 21.1831C69.9382 21.1831 69.5329 21.1001 69.1716 20.9341C68.8151 20.7632 68.5075 20.5239 68.2487 20.2163C67.9948 19.9038 67.7995 19.5303 67.6628 19.0957C67.5261 18.6562 67.4577 18.168 67.4577 17.6309C67.4577 16.9814 67.5456 16.3955 67.7214 15.873C67.9021 15.3506 68.1486 14.9062 68.4611 14.54C68.7736 14.1689 69.1398 13.8833 69.5598 13.6831C69.9846 13.4829 70.4436 13.3828 70.9367 13.3828C71.093 13.3828 71.2541 13.3999 71.4201 13.4341C71.591 13.4683 71.7595 13.5146 71.9255 13.5732C72.0964 13.6318 72.2624 13.7002 72.4235 13.7783C72.5847 13.8516 72.736 13.9272 72.8776 14.0054V11.9546C72.8776 11.3638 72.863 10.8486 72.8337 10.4092C72.8093 9.96484 72.7629 9.58887 72.6945 9.28125H74.2326V17.1182ZM77.6353 17.4478C77.6499 17.8774 77.7158 18.251 77.833 18.5684C77.9551 18.8857 78.1187 19.1494 78.3237 19.3594C78.5337 19.5645 78.7779 19.7183 79.0562 19.8208C79.3394 19.9233 79.647 19.9746 79.979 19.9746C80.4527 19.9746 80.9165 19.9209 81.3706 19.8135C81.8247 19.7061 82.2764 19.5156 82.7256 19.2422L82.8721 20.4507C82.6133 20.5825 82.3594 20.6948 82.1104 20.7876C81.8613 20.8804 81.6123 20.9561 81.3633 21.0146C81.1143 21.0732 80.8604 21.1147 80.6016 21.1392C80.3477 21.1685 80.0791 21.1831 79.7959 21.1831C79.3272 21.1831 78.8804 21.1025 78.4556 20.9414C78.0308 20.7754 77.6572 20.5337 77.335 20.2163C77.0127 19.894 76.7564 19.4961 76.5659 19.0225C76.3755 18.5488 76.2803 17.9995 76.2803 17.3745C76.2803 16.769 76.3609 16.2222 76.522 15.7339C76.688 15.2407 76.9224 14.8208 77.2251 14.4741C77.5279 14.1226 77.8965 13.854 78.3311 13.6685C78.7656 13.478 79.2539 13.3828 79.7959 13.3828C80.1963 13.3828 80.5503 13.4316 80.8579 13.5293C81.1655 13.6221 81.4317 13.7539 81.6563 13.9248C81.8809 14.0908 82.0689 14.2861 82.2202 14.5107C82.3716 14.7354 82.4912 14.9771 82.5791 15.2358C82.6719 15.4946 82.7378 15.7656 82.7769 16.0488C82.8159 16.3271 82.8355 16.603 82.8355 16.8765V17.1621C82.8355 17.2842 82.833 17.3794 82.8281 17.4478H77.6353ZM79.6861 14.4814C79.1489 14.4814 78.7095 14.6401 78.3677 14.9575C78.0259 15.27 77.8013 15.7583 77.6939 16.4224H81.5171C81.5171 16.1099 81.4707 15.834 81.3779 15.5947C81.2901 15.3506 81.1631 15.1455 80.9971 14.9795C80.836 14.8135 80.6431 14.689 80.4185 14.606C80.1939 14.5229 79.9497 14.4814 79.6861 14.4814ZM90.8231 12.2109C90.5594 12.0645 90.3153 11.9424 90.0907 11.8447C89.8709 11.7422 89.6561 11.6592 89.4461 11.5957C89.2362 11.5273 89.0262 11.4785 88.8162 11.4492C88.6063 11.4199 88.3841 11.4053 88.1497 11.4053C87.8568 11.4053 87.5882 11.4492 87.3441 11.5371C87.1048 11.625 86.8973 11.7422 86.7215 11.8887C86.5457 12.0352 86.409 12.2036 86.3114 12.394C86.2186 12.5845 86.1722 12.7798 86.1722 12.98C86.1722 13.1802 86.1991 13.3633 86.2528 13.5293C86.3114 13.6904 86.4261 13.8442 86.597 13.9907C86.7679 14.1323 87.0121 14.2739 87.3294 14.4155C87.6468 14.5522 88.0667 14.6963 88.5892 14.8477C89.0726 14.9893 89.4998 15.1553 89.8709 15.3457C90.2469 15.5312 90.5619 15.7461 90.8158 15.9902C91.0697 16.2344 91.2625 16.5127 91.3944 16.8252C91.5262 17.1377 91.5921 17.4917 91.5921 17.8872C91.5921 18.3804 91.4945 18.8296 91.2992 19.2349C91.1087 19.6353 90.8451 19.9819 90.5081 20.2749C90.1761 20.563 89.7879 20.7876 89.3436 20.9487C88.8993 21.105 88.4281 21.1831 87.93 21.1831C87.5785 21.1831 87.2342 21.1587 86.8973 21.1099C86.5653 21.061 86.2503 20.9927 85.9525 20.9048C85.6595 20.8169 85.3885 20.7144 85.1395 20.5972C84.8905 20.4751 84.6732 20.3408 84.4876 20.1943L84.8172 18.6929C85.3055 19.1177 85.8084 19.4253 86.326 19.6157C86.8485 19.8062 87.3831 19.9014 87.93 19.9014C88.223 19.9014 88.5062 19.8599 88.7796 19.7769C89.0531 19.6938 89.2948 19.5742 89.5047 19.418C89.7147 19.2568 89.8831 19.0615 90.0101 18.832C90.1371 18.5977 90.2005 18.3315 90.2005 18.0337C90.2005 17.8433 90.1688 17.6626 90.1053 17.4917C90.0467 17.3159 89.9246 17.145 89.7391 16.979C89.5536 16.813 89.2874 16.6494 88.9408 16.4883C88.5941 16.3223 88.1351 16.1538 87.5638 15.9829C86.9925 15.812 86.5262 15.624 86.1649 15.4189C85.8036 15.2139 85.5204 14.9917 85.3153 14.7524C85.1102 14.5083 84.9686 14.2495 84.8905 13.9761C84.8172 13.6978 84.7806 13.4023 84.7806 13.0898C84.7806 12.7773 84.8441 12.4478 84.971 12.1011C85.1029 11.7544 85.3079 11.4346 85.5863 11.1416C85.8646 10.8486 86.221 10.6069 86.6556 10.4165C87.0902 10.2212 87.6126 10.1235 88.223 10.1235C88.5062 10.1235 88.7699 10.1357 89.014 10.1602C89.263 10.1846 89.5023 10.2236 89.7318 10.2773C89.9662 10.3311 90.1956 10.3994 90.4203 10.4824C90.6449 10.5654 90.8768 10.6655 91.1161 10.7827L90.8231 12.2109ZM93.7204 11.1489C93.7204 11.0122 93.7423 10.8853 93.7863 10.7681C93.8302 10.646 93.8913 10.541 93.9694 10.4531C94.0524 10.3604 94.1501 10.2896 94.2624 10.2407C94.3747 10.187 94.4992 10.1602 94.6359 10.1602C94.7726 10.1602 94.8996 10.187 95.0168 10.2407C95.1339 10.2896 95.234 10.3604 95.3171 10.4531C95.4001 10.541 95.466 10.646 95.5148 10.7681C95.5636 10.8853 95.588 11.0122 95.588 11.1489C95.588 11.2856 95.5636 11.415 95.5148 11.5371C95.466 11.6543 95.4001 11.7593 95.3171 11.8521C95.234 11.9399 95.1339 12.0107 95.0168 12.0645C94.8996 12.1133 94.7726 12.1377 94.6359 12.1377C94.4992 12.1377 94.3747 12.1133 94.2624 12.0645C94.1501 12.0107 94.0524 11.9399 93.9694 11.8521C93.8913 11.7593 93.8302 11.6543 93.7863 11.5371C93.7423 11.415 93.7204 11.2856 93.7204 11.1489ZM95.3317 17.521C95.3317 17.7554 95.3341 18.0337 95.339 18.356C95.3488 18.6733 95.3586 18.9956 95.3683 19.3228C95.383 19.6499 95.3976 19.9624 95.4123 20.2603C95.4318 20.5581 95.4538 20.8047 95.4782 21H93.9767V17.1182C93.9767 16.7617 93.9743 16.4102 93.9694 16.0635C93.9694 15.7168 93.9645 15.3896 93.9547 15.082C93.9499 14.7695 93.9401 14.4814 93.9254 14.2178C93.9108 13.9492 93.8913 13.7197 93.8669 13.5293H95.3317V17.521ZM102.807 14.9209C102.689 14.877 102.565 14.8379 102.433 14.8037C102.301 14.7646 102.167 14.7329 102.03 14.7085C101.894 14.6841 101.759 14.6646 101.627 14.6499C101.5 14.6353 101.381 14.6279 101.269 14.6279C100.868 14.6279 100.526 14.7109 100.243 14.877C99.9599 15.0381 99.728 15.2529 99.5473 15.5215C99.3716 15.7852 99.2422 16.0854 99.1592 16.4224C99.0762 16.7593 99.0346 17.1011 99.0346 17.4478C99.0346 17.9019 99.0688 18.2803 99.1372 18.583C99.2104 18.8809 99.3081 19.1201 99.4302 19.3008C99.5571 19.4766 99.7036 19.6035 99.8696 19.6816C100.041 19.7549 100.226 19.7915 100.426 19.7915C100.612 19.7915 100.81 19.7549 101.02 19.6816C101.229 19.6035 101.439 19.4937 101.649 19.3521C101.864 19.2104 102.069 19.0347 102.265 18.8247C102.465 18.6147 102.645 18.3755 102.807 18.1069V14.9209ZM104.162 20.8169C104.162 21.4614 104.066 22.0132 103.876 22.4722C103.69 22.9312 103.444 23.3047 103.136 23.5928C102.833 23.8857 102.487 24.1006 102.096 24.2373C101.706 24.374 101.308 24.4424 100.902 24.4424C100.434 24.4424 99.9673 24.3618 99.5034 24.2007C99.0444 24.0396 98.6196 23.8271 98.229 23.5635L98.7051 22.4282C99.0517 22.6772 99.4009 22.8799 99.7524 23.0361C100.104 23.1924 100.463 23.2705 100.829 23.2705C101.02 23.2705 101.229 23.2363 101.459 23.168C101.688 23.0996 101.903 22.98 102.103 22.8091C102.304 22.6431 102.47 22.4185 102.602 22.1353C102.738 21.8521 102.807 21.498 102.807 21.0732V19.7183C102.616 19.9575 102.414 20.1626 102.199 20.3335C101.989 20.4995 101.774 20.6362 101.554 20.7437C101.339 20.8462 101.122 20.9219 100.902 20.9707C100.687 21.0146 100.48 21.0366 100.28 21.0366C99.9429 21.0366 99.6181 20.978 99.3056 20.8608C98.9931 20.7437 98.7148 20.5581 98.4707 20.3042C98.2314 20.0454 98.0386 19.7109 97.8921 19.3008C97.7505 18.8906 97.6797 18.395 97.6797 17.814C97.6797 17.2524 97.7529 16.7056 97.8994 16.1733C98.0459 15.6411 98.2729 15.1699 98.5805 14.7598C98.8882 14.3447 99.2812 14.0127 99.7597 13.7637C100.243 13.5098 100.819 13.3828 101.488 13.3828C101.708 13.3828 101.933 13.3999 102.162 13.4341C102.396 13.4634 102.628 13.5049 102.858 13.5586C103.087 13.6123 103.312 13.6733 103.532 13.7417C103.751 13.8052 103.961 13.8687 104.162 13.9321V20.8169ZM111.673 21V16.9717C111.673 16.5127 111.641 16.1343 111.578 15.8364C111.519 15.5386 111.429 15.3042 111.307 15.1333C111.19 14.9575 111.038 14.8354 110.853 14.7671C110.672 14.6987 110.457 14.6646 110.208 14.6646C109.945 14.6646 109.686 14.728 109.432 14.855C109.183 14.9771 108.953 15.1382 108.743 15.3384C108.533 15.5337 108.348 15.7559 108.187 16.0049C108.026 16.2539 107.906 16.5029 107.828 16.752V21H106.473V16.4956C106.473 15.7729 106.431 15.1626 106.348 14.6646C106.27 14.1616 106.19 13.7832 106.107 13.5293H107.425C107.454 13.6074 107.484 13.71 107.513 13.8369C107.542 13.959 107.569 14.0884 107.594 14.2251C107.618 14.3618 107.64 14.4961 107.659 14.6279L107.718 14.9575C108.182 14.4009 108.651 14.0005 109.124 13.7563C109.598 13.5073 110.094 13.3828 110.611 13.3828C111.392 13.3828 111.991 13.6392 112.406 14.1519C112.821 14.6597 113.028 15.4165 113.028 16.4224V21H111.673ZM120.247 14.7012C120.125 14.6768 119.946 14.6475 119.712 14.6133C119.483 14.5742 119.185 14.5547 118.818 14.5547C118.34 14.5547 117.94 14.6523 117.617 14.8477C117.3 15.0381 117.046 15.2944 116.856 15.6167C116.665 15.9341 116.528 16.3003 116.445 16.7153C116.367 17.1304 116.328 17.5576 116.328 17.9971C116.328 18.2803 116.355 18.5415 116.409 18.7808C116.467 19.0151 116.546 19.2202 116.643 19.396C116.741 19.5669 116.853 19.7012 116.98 19.7988C117.107 19.8916 117.244 19.938 117.39 19.938C117.551 19.938 117.715 19.8843 117.881 19.7769C118.052 19.6694 118.218 19.5254 118.379 19.3447C118.545 19.1592 118.706 18.9468 118.862 18.7075C119.019 18.4683 119.165 18.2168 119.302 17.9531C119.439 17.6846 119.566 17.4136 119.683 17.1401C119.8 16.8667 119.9 16.6079 119.983 16.3638C120.066 16.1147 120.13 15.8877 120.173 15.6826C120.222 15.4775 120.247 15.3091 120.247 15.1772V14.7012ZM120.796 21C120.742 20.8828 120.693 20.707 120.65 20.4727C120.61 20.2383 120.576 19.9868 120.547 19.7183C120.523 19.4448 120.503 19.1787 120.488 18.9199C120.474 18.6611 120.466 18.4512 120.466 18.29V17.5576C120.31 17.9727 120.122 18.395 119.902 18.8247C119.688 19.2544 119.441 19.645 119.163 19.9966C118.884 20.3433 118.577 20.6289 118.24 20.8535C117.908 21.0732 117.551 21.1831 117.171 21.1831C116.863 21.1831 116.575 21.1147 116.306 20.978C116.038 20.8413 115.803 20.6387 115.603 20.3701C115.408 20.1016 115.254 19.7695 115.142 19.374C115.029 18.9736 114.973 18.5146 114.973 17.9971C114.973 17.416 115.051 16.8496 115.208 16.2979C115.364 15.7412 115.603 15.248 115.925 14.8184C116.248 14.3838 116.658 14.0371 117.156 13.7783C117.654 13.5146 118.245 13.3828 118.928 13.3828C119.402 13.3828 119.873 13.4146 120.342 13.478C120.811 13.5366 121.231 13.6147 121.602 13.7124V17.1182C121.602 18.041 121.646 18.8174 121.734 19.4473C121.821 20.0723 121.936 20.5898 122.078 21H120.796ZM125.554 17.521C125.554 17.7554 125.556 18.0312 125.561 18.3486C125.571 18.666 125.581 18.9883 125.59 19.3154C125.605 19.6426 125.62 19.9551 125.634 20.2529C125.654 20.5508 125.676 20.7998 125.7 21H124.199V12.7236C124.199 12.0107 124.186 11.3662 124.162 10.79C124.138 10.209 124.101 9.70605 124.052 9.28125H125.554V17.521Z" fill="white"/>
    <path d="M139 0H5C2.23858 0 0 2.23858 0 5V27C0 29.7614 2.23857 32 5 32H139C141.761 32 144 29.7614 144 27V5C144 2.23858 141.761 0 139 0Z" fill="url(#paint0_linear_20_2)"/>
    <path d="M31 0H5C2.23858 0 0 2.23858 0 5V27C0 29.7614 2.23858 32 5 32H31V0Z" fill="#035BDA"/>
    <path d="M15 4C16.2855 4 24.75 8.887 25.3905 10C26.0347 11.113 26.0347 20.887 25.3905 22C24.7462 23.113 16.2847 28 15 28C13.7145 28 5.24999 23.113 4.60574 22C3.96524 20.887 3.96524 11.113 4.60574 10C5.24999 8.887 13.7152 4 15 4ZM17.2972 10.801C17.263 10.8005 17.2291 10.8068 17.1974 10.8196C17.1656 10.8323 17.1367 10.8512 17.1124 10.8752C17.088 10.8992 17.0687 10.9278 17.0555 10.9594C17.0423 10.9909 17.0355 11.0248 17.0355 11.059V14.9343H12.9652V10.9067H13.6642C13.6979 10.9067 13.7312 10.8999 13.7623 10.8868C13.7933 10.8738 13.8215 10.8547 13.8451 10.8307C13.8688 10.8068 13.8874 10.7783 13.9 10.7471C13.9126 10.7158 13.9189 10.6824 13.9185 10.6487C13.9184 10.605 13.9072 10.5621 13.8861 10.5238C13.865 10.4855 13.8346 10.4532 13.7977 10.4297L12.2235 8.92225C12.1964 8.88813 12.162 8.86057 12.1228 8.84161C12.0835 8.82265 12.0406 8.81279 11.997 8.81275C11.9567 8.8133 11.917 8.82312 11.8811 8.84146C11.8453 8.8598 11.8141 8.88616 11.79 8.9185L10.11 10.4305C10.0618 10.4598 10.0246 10.5042 10.004 10.5568C9.98353 10.6093 9.98087 10.6672 9.99648 10.7214C10.0121 10.7756 10.0451 10.8232 10.0904 10.8569C10.1357 10.8905 10.1908 10.9083 10.2472 10.9075H10.9507L10.9582 20.9425C10.9582 21.0873 11.0677 21.2005 11.2125 21.2005H12.705C12.7389 21.2006 12.7725 21.194 12.8038 21.1811C12.8352 21.1681 12.8637 21.1491 12.8876 21.1252C12.9116 21.1012 12.9306 21.0727 12.9436 21.0413C12.9565 21.01 12.9631 20.9764 12.963 20.9425V16.9382H17.037V21.0903H16.338C16.2816 21.0895 16.2265 21.1073 16.1811 21.1409C16.1358 21.1745 16.1028 21.2221 16.0872 21.2763C16.0716 21.3306 16.0743 21.3884 16.0948 21.441C16.1153 21.4936 16.1525 21.5379 16.2007 21.5673L17.7787 23.0792C17.8215 23.1415 17.9197 23.1887 18.0052 23.1887C18.0907 23.1887 18.1612 23.1415 18.2122 23.0792L19.8922 21.5673C19.9293 21.544 19.9599 21.5117 19.981 21.4734C20.0021 21.4351 20.0132 21.392 20.013 21.3483C20.0124 21.28 19.985 21.2147 19.9368 21.1665C19.8885 21.1182 19.8232 21.0908 19.755 21.0903H19.0515L19.044 11.059C19.0449 11.025 19.039 10.9912 19.0266 10.9595C19.0143 10.9278 18.9957 10.899 18.972 10.8746C18.9483 10.8502 18.92 10.8308 18.8887 10.8175C18.8574 10.8042 18.8237 10.7973 18.7897 10.7972H17.2972V10.801Z" fill="white"/>
    <path d="M4 4H27V28H4V4Z" fill="#035BDA"/>
    <path fill-rule="evenodd" clip-rule="evenodd" d="M15.4198 11.529L15.1932 10.4089L5.18457 8.94421L8.39727 14.0276L9.05627 14.1138L10.7449 16.9785L12.2689 17.1724L15.4816 25.0129L18.6118 17.1724L20.177 17.0431L21.8657 14.1137L22.4423 14.0276L25.7168 8.94421L15.6875 10.4089L15.4198 11.529Z" fill="white"/>
    <path fill-rule="evenodd" clip-rule="evenodd" d="M13.8745 11.8325L8.14709 10.7535L9.30085 12.6095L12.6796 13.0842L13.0093 14.2928L10.7842 14.0769L11.6494 15.5875L13.4418 15.7386L15.5021 22.1266L17.5417 15.7386L19.3546 15.5875L20.2199 14.077L17.9949 14.2928L18.3245 13.0842L21.7033 12.6094L22.8776 10.7535L17.0884 11.8325L15.4814 18.2204L13.8745 11.8325V11.8325Z" fill="#1F69FF"/>
    <defs>
    <linearGradient id="paint0_linear_20_2" x1="0" y1="0" x2="0" y2="32" gradientUnits="userSpaceOnUse">
    <stop stop-color="#BBBBBB" stop-opacity="0.1"/>
    <stop offset="1" stop-opacity="0.1"/>
    </linearGradient>
    </defs>
    </svg>
    