<svg width="144" height="32" viewBox="0 0 144 32" fill="none" xmlns="http://www.w3.org/2000/svg">
    <path d="M139 0H31V32H139C141.761 32 144 29.7614 144 27V5C144 2.23858 141.761 0 139 0Z" fill="#0F1418"/>
    <path d="M31 0H5C2.23858 0 0 2.23858 0 5V27C0 29.7614 2.23858 32 5 32H31V0Z" fill="#001935"/>
    <path d="M43.8653 18.814C43.8653 19.5415 43.8702 20.1836 43.8799 20.7402C43.8897 21.292 43.9214 21.7119 43.9752 22H42.3638C42.4175 21.707 42.4493 21.2847 42.459 20.7329C42.4688 20.1763 42.4737 19.5366 42.4737 18.814V13.6284C42.4737 13.2866 42.4688 12.9692 42.459 12.6763C42.4542 12.3784 42.4444 12.1123 42.4297 11.8779C42.4151 11.6436 42.3931 11.4531 42.3638 11.3066C42.6714 11.2969 42.9962 11.2847 43.3379 11.27C43.6309 11.2603 43.9605 11.2529 44.3267 11.248C44.6978 11.2383 45.0811 11.2334 45.4766 11.2334C46.0674 11.2334 46.6021 11.3018 47.0806 11.4385C47.5591 11.5703 47.9669 11.7729 48.3038 12.0464C48.6407 12.3149 48.8995 12.6519 49.0801 13.0571C49.2657 13.4575 49.3585 13.9238 49.3585 14.4561C49.3585 14.9932 49.2681 15.4766 49.0875 15.9062C48.9117 16.3359 48.6553 16.7021 48.3184 17.0049C47.9864 17.3027 47.5787 17.5322 47.0953 17.6934C46.6168 17.8545 46.0772 17.9351 45.4766 17.9351C45.2081 17.9351 44.9322 17.9302 44.649 17.9204C44.3658 17.9058 44.1045 17.8862 43.8653 17.8618V18.814ZM43.8653 16.7266C44.0997 16.7559 44.3389 16.7754 44.5831 16.7852C44.8272 16.7949 45.0884 16.7998 45.3668 16.7998C45.8795 16.7998 46.3018 16.7412 46.6338 16.624C46.9708 16.5068 47.2369 16.3481 47.4322 16.1479C47.6324 15.9429 47.7715 15.7085 47.8497 15.4448C47.9278 15.1763 47.9669 14.8955 47.9669 14.6025C47.9669 14.3096 47.9229 14.0312 47.835 13.7676C47.752 13.499 47.6104 13.2646 47.4102 13.0645C47.2149 12.8643 46.9537 12.7056 46.6265 12.5884C46.2994 12.4663 45.8917 12.4053 45.4034 12.4053C45.2325 12.4053 45.0787 12.4077 44.942 12.4126C44.8052 12.4126 44.6783 12.415 44.5611 12.4199C44.4439 12.4199 44.3292 12.4224 44.2169 12.4272C44.1045 12.4321 43.9874 12.437 43.8653 12.4419V16.7266ZM52.1825 18.3013C52.1825 18.7261 52.2338 19.1069 52.3363 19.4438C52.4388 19.7808 52.5829 20.0664 52.7684 20.3008C52.9589 20.5303 53.1835 20.7061 53.4423 20.8281C53.7011 20.9502 53.9891 21.0112 54.3065 21.0112C54.5995 21.0112 54.8754 20.9502 55.1342 20.8281C55.3929 20.7061 55.6176 20.5303 55.808 20.3008C56.0033 20.0664 56.1547 19.7808 56.2621 19.4438C56.3744 19.1069 56.4305 18.7261 56.4305 18.3013C56.4305 17.8716 56.3793 17.4883 56.2767 17.1514C56.1742 16.8096 56.0277 16.5215 55.8373 16.2871C55.6517 16.0479 55.4271 15.8672 55.1635 15.7451C54.9047 15.6182 54.619 15.5547 54.3065 15.5547C54.0087 15.5547 53.7304 15.6182 53.4716 15.7451C53.2128 15.8672 52.9882 16.0479 52.7977 16.2871C52.6073 16.5215 52.4559 16.8096 52.3436 17.1514C52.2362 17.4883 52.1825 17.8716 52.1825 18.3013ZM50.8275 18.3013C50.8275 17.6714 50.9227 17.1147 51.1132 16.6313C51.3036 16.1431 51.5599 15.7329 51.8822 15.4009C52.2045 15.064 52.5804 14.8101 53.0101 14.6392C53.4398 14.4683 53.8964 14.3828 54.3798 14.3828C54.8827 14.3828 55.3417 14.4683 55.7567 14.6392C56.1766 14.8101 56.5355 15.064 56.8334 15.4009C57.1361 15.7329 57.3705 16.1431 57.5365 16.6313C57.7025 17.1147 57.7855 17.6714 57.7855 18.3013C57.7855 18.9312 57.6903 19.4878 57.4999 19.9712C57.3095 20.4546 57.0531 20.8599 56.7308 21.187C56.4086 21.5142 56.0326 21.7632 55.6029 21.9341C55.1732 22.1001 54.7167 22.1831 54.2333 22.1831C53.7304 22.1831 53.2689 22.1001 52.849 21.9341C52.434 21.7632 52.0751 21.5142 51.7723 21.187C51.4745 20.8599 51.2426 20.4546 51.0765 19.9712C50.9105 19.4878 50.8275 18.9312 50.8275 18.3013ZM65.5827 22H64.2277V17.8252C64.2277 17.3711 64.2106 17.0049 64.1765 16.7266C64.1423 16.4434 64.0837 16.2236 64.0007 16.0674C63.9226 15.9062 63.8151 15.7988 63.6784 15.7451C63.5417 15.6914 63.3708 15.6646 63.1657 15.6646C62.9851 15.6646 62.8044 15.7012 62.6237 15.7744C62.4431 15.8477 62.2697 15.9526 62.1037 16.0894C61.9426 16.2212 61.7912 16.3799 61.6496 16.5654C61.5129 16.7461 61.3957 16.9463 61.298 17.166V22H59.9431V17.4956C59.9431 16.7729 59.9016 16.1626 59.8186 15.6646C59.7355 15.1616 59.655 14.7832 59.5769 14.5293H60.8952C60.9489 14.6855 60.9953 14.8711 61.0344 15.0859C61.0734 15.2959 61.1052 15.4888 61.1296 15.6646C61.3542 15.4058 61.569 15.1934 61.7741 15.0273C61.9792 14.8613 62.1818 14.7319 62.382 14.6392C62.5871 14.5415 62.7897 14.4756 62.9899 14.4414C63.1901 14.4023 63.3952 14.3828 63.6052 14.3828C63.8444 14.3828 64.0617 14.417 64.257 14.4854C64.4523 14.5537 64.6232 14.644 64.7697 14.7563C64.9211 14.8687 65.0505 15.0005 65.1579 15.1519C65.2653 15.2983 65.3483 15.4521 65.4069 15.6133C65.6364 15.3643 65.8586 15.1616 66.0734 15.0054C66.2883 14.8442 66.4982 14.7197 66.7033 14.6318C66.9084 14.5391 67.1086 14.4756 67.3039 14.4414C67.5041 14.4023 67.6994 14.3828 67.8898 14.3828C68.2609 14.3828 68.5734 14.4438 68.8273 14.5659C69.0812 14.6831 69.2839 14.8589 69.4353 15.0933C69.5915 15.3276 69.7014 15.6182 69.7648 15.9648C69.8332 16.3115 69.8674 16.7119 69.8674 17.166V22H68.5124V17.9717C68.5124 17.498 68.4953 17.1123 68.4611 16.8145C68.427 16.5166 68.3684 16.2822 68.2854 16.1113C68.2072 15.9404 68.0998 15.8232 67.9631 15.7598C67.8264 15.6963 67.6555 15.6646 67.4504 15.6646C67.2697 15.6646 67.0915 15.7012 66.9157 15.7744C66.7399 15.8428 66.569 15.9429 66.403 16.0747C66.2419 16.2017 66.0905 16.3579 65.9489 16.5435C65.8122 16.729 65.6901 16.9365 65.5827 17.166V22ZM73.6802 20.0957C73.9292 20.2715 74.1441 20.418 74.3247 20.5352C74.5103 20.6475 74.6787 20.7378 74.8301 20.8062C74.9815 20.8696 75.1255 20.9136 75.2622 20.938C75.4038 20.9624 75.5601 20.9746 75.731 20.9746C75.9898 20.9746 76.2363 20.9136 76.4707 20.7915C76.71 20.6694 76.9199 20.4937 77.1006 20.2642C77.2862 20.0298 77.4326 19.749 77.5401 19.4219C77.6524 19.0898 77.7085 18.7163 77.7085 18.3013C77.7085 17.896 77.6695 17.5298 77.5913 17.2026C77.5181 16.8706 77.4082 16.5898 77.2617 16.3604C77.1153 16.126 76.937 15.9453 76.7271 15.8184C76.522 15.6914 76.2876 15.6279 76.0239 15.6279C75.814 15.6279 75.5991 15.6743 75.3794 15.7671C75.1597 15.8599 74.9448 15.9966 74.7349 16.1772C74.5298 16.3579 74.3369 16.585 74.1563 16.8584C73.9756 17.127 73.8169 17.437 73.6802 17.7886V20.0957ZM73.2774 14.5293C73.3311 14.6562 73.3848 14.8369 73.4385 15.0713C73.4922 15.3008 73.5362 15.584 73.5703 15.9209C73.7412 15.6963 73.9268 15.4888 74.127 15.2983C74.3321 15.1079 74.5469 14.9468 74.7715 14.8149C75.001 14.6782 75.2403 14.5732 75.4893 14.5C75.7432 14.4219 76.0069 14.3828 76.2803 14.3828C76.6953 14.3828 77.0737 14.4756 77.4155 14.6611C77.7622 14.8418 78.0552 15.0981 78.2945 15.4302C78.5386 15.7573 78.7266 16.1479 78.8584 16.6021C78.9951 17.0513 79.0635 17.5444 79.0635 18.0815C79.0635 18.7065 78.9756 19.2729 78.7998 19.7808C78.624 20.2837 78.3848 20.7134 78.0821 21.0698C77.7842 21.4263 77.4326 21.7021 77.0274 21.8975C76.6221 22.0879 76.19 22.1831 75.731 22.1831C75.5357 22.1831 75.3501 22.1636 75.1743 22.1245C75.0034 22.0854 74.835 22.0317 74.669 21.9634C74.5078 21.895 74.3467 21.812 74.1856 21.7144C74.0244 21.6118 73.856 21.4995 73.6802 21.3774V23.0986C73.6802 23.3916 73.6826 23.6553 73.6875 23.8896C73.6973 24.1289 73.7095 24.3486 73.7241 24.5488C73.7388 24.749 73.7583 24.9321 73.7827 25.0981C73.8071 25.269 73.834 25.4326 73.8633 25.5889H72.3252V18.4478C72.3252 17.9937 72.3203 17.5737 72.3106 17.188C72.3057 16.7974 72.291 16.4409 72.2666 16.1187C72.2422 15.7915 72.2056 15.4961 72.1568 15.2324C72.1079 14.9688 72.042 14.7344 71.959 14.5293H73.2774ZM85.9818 15.7012C85.8597 15.6768 85.6815 15.6475 85.4471 15.6133C85.2176 15.5742 84.9198 15.5547 84.5536 15.5547C84.075 15.5547 83.6746 15.6523 83.3524 15.8477C83.035 16.0381 82.7811 16.2944 82.5907 16.6167C82.4002 16.9341 82.2635 17.3003 82.1805 17.7153C82.1024 18.1304 82.0633 18.5576 82.0633 18.9971C82.0633 19.2803 82.0902 19.5415 82.1439 19.7808C82.2025 20.0151 82.2806 20.2202 82.3783 20.396C82.4759 20.5669 82.5882 20.7012 82.7152 20.7988C82.8421 20.8916 82.9788 20.938 83.1253 20.938C83.2865 20.938 83.45 20.8843 83.6161 20.7769C83.787 20.6694 83.953 20.5254 84.1141 20.3447C84.2801 20.1592 84.4412 19.9468 84.5975 19.7075C84.7537 19.4683 84.9002 19.2168 85.037 18.9531C85.1737 18.6846 85.3006 18.4136 85.4178 18.1401C85.535 17.8667 85.6351 17.6079 85.7181 17.3638C85.8011 17.1147 85.8646 16.8877 85.9085 16.6826C85.9574 16.4775 85.9818 16.3091 85.9818 16.1772V15.7012ZM86.5311 22C86.4774 21.8828 86.4286 21.707 86.3846 21.4727C86.3455 21.2383 86.3114 20.9868 86.2821 20.7183C86.2577 20.4448 86.2381 20.1787 86.2235 19.9199C86.2088 19.6611 86.2015 19.4512 86.2015 19.29V18.5576C86.0453 18.9727 85.8573 19.395 85.6375 19.8247C85.4227 20.2544 85.1761 20.645 84.8978 20.9966C84.6195 21.3433 84.3119 21.6289 83.9749 21.8535C83.6429 22.0732 83.2865 22.1831 82.9056 22.1831C82.598 22.1831 82.3099 22.1147 82.0413 21.978C81.7728 21.8413 81.5384 21.6387 81.3382 21.3701C81.1429 21.1016 80.9891 20.7695 80.8768 20.374C80.7645 19.9736 80.7083 19.5146 80.7083 18.9971C80.7083 18.416 80.7865 17.8496 80.9427 17.2979C81.099 16.7412 81.3382 16.248 81.6605 15.8184C81.9828 15.3838 82.3929 15.0371 82.891 14.7783C83.389 14.5146 83.9798 14.3828 84.6634 14.3828C85.1371 14.3828 85.6082 14.4146 86.077 14.478C86.5457 14.5366 86.9657 14.6147 87.3368 14.7124V18.1182C87.3368 19.041 87.3807 19.8174 87.4686 20.4473C87.5565 21.0723 87.6712 21.5898 87.8128 22H86.5311ZM89.8239 18.6675V13.6284C89.8239 13.2866 89.819 12.9692 89.8092 12.6763C89.8044 12.3784 89.7946 12.1123 89.7799 11.8779C89.7653 11.6436 89.7433 11.4531 89.714 11.3066C89.8166 11.3018 89.946 11.2969 90.1022 11.292C90.2633 11.2822 90.4391 11.2749 90.6296 11.27C90.8249 11.2651 91.0275 11.2603 91.2375 11.2554C91.4523 11.2505 91.6647 11.248 91.8747 11.248C92.0895 11.2432 92.297 11.2407 92.4972 11.2407C92.6974 11.2358 92.8805 11.2334 93.0465 11.2334C93.2419 11.2334 93.464 11.2456 93.713 11.27C93.967 11.2896 94.2306 11.3311 94.5041 11.3945C94.7824 11.458 95.0656 11.5483 95.3537 11.6655C95.6466 11.7778 95.9274 11.9268 96.196 12.1123C96.4694 12.2979 96.7257 12.5225 96.965 12.7861C97.2043 13.0498 97.4118 13.3623 97.5876 13.7236C97.7682 14.085 97.9098 14.5024 98.0124 14.9761C98.1198 15.4448 98.1735 15.9795 98.1735 16.5801C98.1735 17.3076 98.0929 17.9497 97.9318 18.5063C97.7707 19.0581 97.5534 19.5366 97.2799 19.9419C97.0114 20.3472 96.6989 20.6865 96.3424 20.96C95.986 21.2334 95.6125 21.4531 95.2218 21.6191C94.8312 21.7852 94.4357 21.9023 94.0353 21.9707C93.6349 22.0391 93.2565 22.0732 92.9001 22.0732C92.7829 22.0732 92.6462 22.0708 92.4899 22.0659C92.3385 22.0659 92.1774 22.0635 92.0065 22.0586C91.8356 22.0586 91.6598 22.0562 91.4792 22.0513C91.2985 22.0464 91.1227 22.0415 90.9518 22.0366C90.5514 22.0269 90.1388 22.0146 89.714 22C89.7433 21.8535 89.7629 21.6655 89.7726 21.436C89.7873 21.2065 89.797 20.9478 89.8019 20.6597C89.8117 20.3716 89.8166 20.0591 89.8166 19.7222C89.8214 19.3804 89.8239 19.0288 89.8239 18.6675ZM91.2155 20.7915C91.3864 20.8062 91.6086 20.8232 91.882 20.8428C92.1603 20.8574 92.4753 20.8647 92.8268 20.8647C93.154 20.8647 93.4762 20.833 93.7936 20.7695C94.1159 20.7061 94.4211 20.606 94.7091 20.4692C95.0021 20.3276 95.2731 20.147 95.5221 19.9272C95.7712 19.7075 95.986 19.4463 96.1667 19.1436C96.3473 18.8359 96.4889 18.4819 96.5915 18.0815C96.694 17.6812 96.7453 17.2295 96.7453 16.7266C96.7453 15.9062 96.6403 15.2202 96.4303 14.6685C96.2253 14.1167 95.9469 13.6748 95.5954 13.3428C95.2438 13.0059 94.8312 12.7666 94.3576 12.625C93.8888 12.4785 93.3908 12.4053 92.8634 12.4053C92.7414 12.4053 92.6046 12.4077 92.4533 12.4126C92.3019 12.4126 92.1481 12.415 91.9919 12.4199C91.8405 12.4248 91.6964 12.4297 91.5597 12.4346C91.423 12.4346 91.3083 12.437 91.2155 12.4419V20.7915ZM101.291 18.3013C101.291 18.7261 101.342 19.1069 101.444 19.4438C101.547 19.7808 101.691 20.0664 101.876 20.3008C102.067 20.5303 102.291 20.7061 102.55 20.8281C102.809 20.9502 103.097 21.0112 103.415 21.0112C103.708 21.0112 103.983 20.9502 104.242 20.8281C104.501 20.7061 104.726 20.5303 104.916 20.3008C105.111 20.0664 105.263 19.7808 105.37 19.4438C105.482 19.1069 105.539 18.7261 105.539 18.3013C105.539 17.8716 105.487 17.4883 105.385 17.1514C105.282 16.8096 105.136 16.5215 104.945 16.2871C104.76 16.0479 104.535 15.8672 104.271 15.7451C104.013 15.6182 103.727 15.5547 103.415 15.5547C103.117 15.5547 102.838 15.6182 102.58 15.7451C102.321 15.8672 102.096 16.0479 101.906 16.2871C101.715 16.5215 101.564 16.8096 101.452 17.1514C101.344 17.4883 101.291 17.8716 101.291 18.3013ZM99.9355 18.3013C99.9355 17.6714 100.031 17.1147 100.221 16.6313C100.412 16.1431 100.668 15.7329 100.99 15.4009C101.312 15.064 101.688 14.8101 102.118 14.6392C102.548 14.4683 103.004 14.3828 103.488 14.3828C103.991 14.3828 104.45 14.4683 104.865 14.6392C105.285 14.8101 105.644 15.064 105.941 15.4009C106.244 15.7329 106.479 16.1431 106.645 16.6313C106.811 17.1147 106.894 17.6714 106.894 18.3013C106.894 18.9312 106.798 19.4878 106.608 19.9712C106.417 20.4546 106.161 20.8599 105.839 21.187C105.517 21.5142 105.141 21.7632 104.711 21.9341C104.281 22.1001 103.825 22.1831 103.341 22.1831C102.838 22.1831 102.377 22.1001 101.957 21.9341C101.542 21.7632 101.183 21.5142 100.88 21.187C100.583 20.8599 100.351 20.4546 100.185 19.9712C100.019 19.4878 99.9355 18.9312 99.9355 18.3013ZM114.105 22V17.9717C114.105 17.5127 114.073 17.1343 114.01 16.8364C113.951 16.5386 113.861 16.3042 113.739 16.1333C113.621 15.9575 113.47 15.8354 113.284 15.7671C113.104 15.6987 112.889 15.6646 112.64 15.6646C112.376 15.6646 112.117 15.728 111.864 15.855C111.615 15.9771 111.385 16.1382 111.175 16.3384C110.965 16.5337 110.78 16.7559 110.618 17.0049C110.457 17.2539 110.338 17.5029 110.26 17.752V22H108.905V17.4956C108.905 16.7729 108.863 16.1626 108.78 15.6646C108.702 15.1616 108.621 14.7832 108.538 14.5293H109.857C109.886 14.6074 109.915 14.71 109.945 14.8369C109.974 14.959 110.001 15.0884 110.025 15.2251C110.05 15.3618 110.072 15.4961 110.091 15.6279L110.15 15.9575C110.614 15.4009 111.082 15.0005 111.556 14.7563C112.03 14.5073 112.525 14.3828 113.043 14.3828C113.824 14.3828 114.422 14.6392 114.837 15.1519C115.252 15.6597 115.46 16.4165 115.46 17.4224V22H114.105ZM119.126 20.0957C119.375 20.2715 119.59 20.418 119.771 20.5352C119.956 20.6475 120.125 20.7378 120.276 20.8062C120.427 20.8696 120.571 20.9136 120.708 20.938C120.85 20.9624 121.006 20.9746 121.177 20.9746C121.436 20.9746 121.682 20.9136 121.917 20.7915C122.156 20.6694 122.366 20.4937 122.547 20.2642C122.732 20.0298 122.879 19.749 122.986 19.4219C123.098 19.0898 123.154 18.7163 123.154 18.3013C123.154 17.896 123.115 17.5298 123.037 17.2026C122.964 16.8706 122.854 16.5898 122.708 16.3604C122.561 16.126 122.383 15.9453 122.173 15.8184C121.968 15.6914 121.734 15.6279 121.47 15.6279C121.26 15.6279 121.045 15.6743 120.825 15.7671C120.606 15.8599 120.391 15.9966 120.181 16.1772C119.976 16.3579 119.783 16.585 119.602 16.8584C119.422 17.127 119.263 17.437 119.126 17.7886V20.0957ZM118.723 14.5293C118.777 14.6562 118.831 14.8369 118.884 15.0713C118.938 15.3008 118.982 15.584 119.016 15.9209C119.187 15.6963 119.373 15.4888 119.573 15.2983C119.778 15.1079 119.993 14.9468 120.217 14.8149C120.447 14.6782 120.686 14.5732 120.935 14.5C121.189 14.4219 121.453 14.3828 121.726 14.3828C122.141 14.3828 122.52 14.4756 122.861 14.6611C123.208 14.8418 123.501 15.0981 123.74 15.4302C123.984 15.7573 124.172 16.1479 124.304 16.6021C124.441 17.0513 124.509 17.5444 124.509 18.0815C124.509 18.7065 124.422 19.2729 124.246 19.7808C124.07 20.2837 123.831 20.7134 123.528 21.0698C123.23 21.4263 122.879 21.7021 122.473 21.8975C122.068 22.0879 121.636 22.1831 121.177 22.1831C120.982 22.1831 120.796 22.1636 120.62 22.1245C120.449 22.0854 120.281 22.0317 120.115 21.9634C119.954 21.895 119.793 21.812 119.631 21.7144C119.47 21.6118 119.302 21.4995 119.126 21.3774V23.0986C119.126 23.3916 119.129 23.6553 119.133 23.8896C119.143 24.1289 119.155 24.3486 119.17 24.5488C119.185 24.749 119.204 24.9321 119.229 25.0981C119.253 25.269 119.28 25.4326 119.309 25.5889H117.771V18.4478C117.771 17.9937 117.766 17.5737 117.756 17.188C117.752 16.7974 117.737 16.4409 117.713 16.1187C117.688 15.7915 117.651 15.4961 117.603 15.2324C117.554 14.9688 117.488 14.7344 117.405 14.5293H118.723ZM131.428 15.7012C131.306 15.6768 131.127 15.6475 130.893 15.6133C130.664 15.5742 130.366 15.5547 129.999 15.5547C129.521 15.5547 129.121 15.6523 128.798 15.8477C128.481 16.0381 128.227 16.2944 128.037 16.6167C127.846 16.9341 127.709 17.3003 127.626 17.7153C127.548 18.1304 127.509 18.5576 127.509 18.9971C127.509 19.2803 127.536 19.5415 127.59 19.7808C127.648 20.0151 127.727 20.2202 127.824 20.396C127.922 20.5669 128.034 20.7012 128.161 20.7988C128.288 20.8916 128.425 20.938 128.571 20.938C128.732 20.938 128.896 20.8843 129.062 20.7769C129.233 20.6694 129.399 20.5254 129.56 20.3447C129.726 20.1592 129.887 19.9468 130.043 19.7075C130.2 19.4683 130.346 19.2168 130.483 18.9531C130.62 18.6846 130.747 18.4136 130.864 18.1401C130.981 17.8667 131.081 17.6079 131.164 17.3638C131.247 17.1147 131.31 16.8877 131.354 16.6826C131.403 16.4775 131.428 16.3091 131.428 16.1772V15.7012ZM131.977 22C131.923 21.8828 131.874 21.707 131.831 21.4727C131.791 21.2383 131.757 20.9868 131.728 20.7183C131.704 20.4448 131.684 20.1787 131.669 19.9199C131.655 19.6611 131.647 19.4512 131.647 19.29V18.5576C131.491 18.9727 131.303 19.395 131.083 19.8247C130.869 20.2544 130.622 20.645 130.344 20.9966C130.065 21.3433 129.758 21.6289 129.421 21.8535C129.089 22.0732 128.732 22.1831 128.352 22.1831C128.044 22.1831 127.756 22.1147 127.487 21.978C127.219 21.8413 126.984 21.6387 126.784 21.3701C126.589 21.1016 126.435 20.7695 126.323 20.374C126.21 19.9736 126.154 19.5146 126.154 18.9971C126.154 18.416 126.232 17.8496 126.389 17.2979C126.545 16.7412 126.784 16.248 127.106 15.8184C127.429 15.3838 127.839 15.0371 128.337 14.7783C128.835 14.5146 129.426 14.3828 130.109 14.3828C130.583 14.3828 131.054 14.4146 131.523 14.478C131.992 14.5366 132.412 14.6147 132.783 14.7124V18.1182C132.783 19.041 132.827 19.8174 132.914 20.4473C133.002 21.0723 133.117 21.5898 133.259 22H131.977Z" fill="white"/>
    <path d="M139 0H5C2.23858 0 0 2.23858 0 5V27C0 29.7614 2.23857 32 5 32H139C141.761 32 144 29.7614 144 27V5C144 2.23858 141.761 0 139 0Z" fill="url(#paint0_linear_49_40)"/>
    <g clip-path="url(#clip0_49_40)">
    <path d="M23.885 7.90601C23.7575 7.9087 23.6339 7.9506 23.531 8.02601C23.451 8.10601 23.37 8.22201 23.37 8.33901C23.37 8.53901 23.606 8.81301 24.043 9.26201C25.865 11.016 26.781 13.165 26.775 15.756C26.768 18.623 25.805 20.926 23.931 22.71C23.537 23.063 23.375 23.34 23.374 23.577C23.374 23.693 23.454 23.814 23.534 23.93C23.6296 24.023 23.7543 24.0802 23.887 24.092C24.321 24.092 24.927 23.58 25.72 22.583C27.262 20.693 27.96 18.605 27.999 15.759C28.035 12.912 27.142 10.982 25.396 8.98901C24.766 8.27701 24.243 7.90701 23.885 7.90601V7.90601ZM8.11605 7.90801C7.75805 7.90801 7.23405 8.27801 6.60605 8.99101C4.85805 10.984 3.96505 12.914 4.00105 15.761C4.04105 18.607 4.73805 20.694 6.28105 22.585C7.07205 23.582 7.67905 24.095 8.11305 24.094C8.24563 24.0825 8.37009 24.0252 8.46505 23.932C8.54505 23.816 8.62505 23.695 8.62505 23.579C8.62505 23.342 8.46305 23.065 8.06905 22.713C6.19605 20.928 5.23205 18.626 5.22505 15.758C5.21905 13.167 6.13505 11.018 7.95705 9.26401C8.39405 8.81501 8.63105 8.54201 8.63005 8.34101C8.63005 8.22401 8.55005 8.10801 8.46905 8.02801C8.36617 7.9526 8.24257 7.9107 8.11505 7.90801H8.11605ZM15.172 8.80301C15.172 8.80301 15.827 10.884 12.523 15.53C9.36705 19.963 13.568 22.68 13.955 22.916C13.674 22.736 11.954 21.416 14.357 17.493C14.823 16.723 15.433 16.023 16.191 14.452C16.191 14.452 16.861 15.398 16.511 17.45C15.988 20.551 18.782 19.664 18.825 19.707C19.801 20.857 18.017 22.877 17.908 22.94C17.8 23.001 23.004 19.81 19.307 15.005C19.054 15.258 18.725 16.447 18.04 16.271C17.356 16.097 20.165 12.777 15.172 8.80301V8.80301ZM13.955 22.916C13.978 22.932 13.993 22.94 13.993 22.94L13.955 22.916Z" fill="white"/>
    </g>
    <defs>
    <linearGradient id="paint0_linear_49_40" x1="0" y1="0" x2="0" y2="32" gradientUnits="userSpaceOnUse">
    <stop stop-color="#BBBBBB" stop-opacity="0.1"/>
    <stop offset="1" stop-opacity="0.1"/>
    </linearGradient>
    <clipPath id="clip0_49_40">
    <rect width="24" height="24" fill="white" transform="translate(4 4)"/>
    </clipPath>
    </defs>
    </svg>
    