<svg width="90" height="32" viewBox="0 0 90 32" fill="none" xmlns="http://www.w3.org/2000/svg">
    <path d="M85 0H5C2.23858 0 0 2.23858 0 5V27C0 29.7614 2.23858 32 5 32H85C87.7614 32 90 29.7614 90 27V5C90 2.23858 87.7614 0 85 0Z" fill="url(#paint0_linear_47_113)"/>
    <path d="M77 4H13C10.2386 4 8 6.23858 8 9V21C8 23.7614 10.2386 26 13 26H77C79.7614 26 82 23.7614 82 21V9C82 6.23858 79.7614 4 77 4Z" fill="black"/>
    <g style="mix-blend-mode:lighten">
    <path d="M53.5549 11.7715L51.3576 13.0312L51.1745 11.7129L53.7013 10.1602H54.9465V19.7549H57.2536V21H51.2477V19.7549H53.5549V11.7715ZM66.7354 15.5801C66.7354 16.6592 66.6353 17.5576 66.4351 18.2754C66.2397 18.9932 65.9712 19.5693 65.6294 20.0039C65.2876 20.4336 64.8848 20.7388 64.4209 20.9194C63.957 21.0952 63.459 21.1831 62.9268 21.1831C62.3994 21.1831 61.9111 21.0928 61.4619 20.9121C61.0127 20.7314 60.6245 20.4312 60.2974 20.0112C59.9751 19.5864 59.7212 19.0249 59.5356 18.3267C59.355 17.6284 59.2646 16.7617 59.2646 15.7266C59.2646 14.6963 59.3623 13.8247 59.5576 13.1118C59.7578 12.3989 60.0288 11.8228 60.3706 11.3833C60.7173 10.939 61.1226 10.6191 61.5864 10.4238C62.0503 10.2236 62.5459 10.1235 63.0732 10.1235C63.6055 10.1235 64.0938 10.2212 64.5381 10.4165C64.9873 10.6069 65.373 10.9194 65.6953 11.354C66.0225 11.7837 66.2764 12.3452 66.457 13.0386C66.6426 13.7319 66.7354 14.5791 66.7354 15.5801ZM65.2705 15.7632C65.2705 14.9575 65.2217 14.2764 65.124 13.7197C65.0264 13.1582 64.8823 12.7041 64.6919 12.3574C64.5015 12.0059 64.2646 11.7544 63.9814 11.603C63.6982 11.4468 63.3711 11.3687 63 11.3687C62.6484 11.3687 62.3311 11.4468 62.0479 11.603C61.7695 11.7544 61.5327 11.9985 61.3374 12.3354C61.1421 12.6724 60.9907 13.1045 60.8833 13.6318C60.7808 14.1592 60.7295 14.7964 60.7295 15.5435C60.7295 16.3491 60.7783 17.0327 60.876 17.5942C60.9785 18.1509 61.125 18.6025 61.3154 18.9492C61.5107 19.2959 61.75 19.5474 62.0332 19.7036C62.3164 19.8599 62.6387 19.938 63 19.938C63.3516 19.938 63.6665 19.8599 63.9448 19.7036C64.228 19.5474 64.4673 19.3032 64.6626 18.9712C64.8579 18.6343 65.0068 18.2021 65.1094 17.6748C65.2168 17.1475 65.2705 16.5103 65.2705 15.7632ZM75.7044 15.5801C75.7044 16.6592 75.6043 17.5576 75.4041 18.2754C75.2088 18.9932 74.9403 19.5693 74.5985 20.0039C74.2567 20.4336 73.8538 20.7388 73.39 20.9194C72.9261 21.0952 72.428 21.1831 71.8958 21.1831C71.3685 21.1831 70.8802 21.0928 70.431 20.9121C69.9818 20.7314 69.5936 20.4312 69.2664 20.0112C68.9442 19.5864 68.6903 19.0249 68.5047 18.3267C68.324 17.6284 68.2337 16.7617 68.2337 15.7266C68.2337 14.6963 68.3314 13.8247 68.5267 13.1118C68.7269 12.3989 68.9979 11.8228 69.3397 11.3833C69.6863 10.939 70.0916 10.6191 70.5555 10.4238C71.0194 10.2236 71.515 10.1235 72.0423 10.1235C72.5745 10.1235 73.0628 10.2212 73.5071 10.4165C73.9564 10.6069 74.3421 10.9194 74.6644 11.354C74.9915 11.7837 75.2454 12.3452 75.4261 13.0386C75.6116 13.7319 75.7044 14.5791 75.7044 15.5801ZM74.2396 15.7632C74.2396 14.9575 74.1907 14.2764 74.0931 13.7197C73.9954 13.1582 73.8514 12.7041 73.661 12.3574C73.4705 12.0059 73.2337 11.7544 72.9505 11.603C72.6673 11.4468 72.3402 11.3687 71.9691 11.3687C71.6175 11.3687 71.3001 11.4468 71.0169 11.603C70.7386 11.7544 70.5018 11.9985 70.3065 12.3354C70.1112 12.6724 69.9598 13.1045 69.8524 13.6318C69.7498 14.1592 69.6986 14.7964 69.6986 15.5435C69.6986 16.3491 69.7474 17.0327 69.845 17.5942C69.9476 18.1509 70.0941 18.6025 70.2845 18.9492C70.4798 19.2959 70.7191 19.5474 71.0023 19.7036C71.2855 19.8599 71.6077 19.938 71.9691 19.938C72.3206 19.938 72.6356 19.8599 72.9139 19.7036C73.1971 19.5474 73.4363 19.3032 73.6317 18.9712C73.827 18.6343 73.9759 18.2021 74.0784 17.6748C74.1859 17.1475 74.2396 16.5103 74.2396 15.7632Z" fill="white"/>
    </g>
    <g clip-path="url(#clip0_47_113)">
    <path d="M31.5863 8.125H30.4137C29.3375 9.66937 26.87 10.75 24 10.75V15.1539C24.0001 16.8952 24.5823 18.5866 25.6541 19.9591C26.7258 21.3316 28.2256 22.3065 29.915 22.7288L31 23L32.085 22.7288C33.7744 22.3065 35.2742 21.3316 36.3459 19.9591C37.4177 18.5866 37.9999 16.8952 38 15.1539V10.75C35.13 10.75 32.6669 9.66937 31.5863 8.125Z" stroke="#F7CA18" stroke-width="2" stroke-linecap="round" stroke-linejoin="round"/>
    <path d="M30.5363 12.6487L29.908 14.3725L27.7809 14.6612C27.7187 14.6595 27.6576 14.6781 27.6068 14.7142C27.5562 14.7503 27.5186 14.8019 27.4999 14.8614C27.4812 14.9207 27.4824 14.9846 27.5032 15.0432C27.5241 15.1018 27.5635 15.152 27.6155 15.1862L29.103 16.3736L28.7372 18.3432C28.721 18.4027 28.7238 18.4656 28.745 18.5233C28.7664 18.5811 28.8052 18.6307 28.8562 18.6652C28.9071 18.6997 28.9676 18.7175 29.0291 18.7159C29.0907 18.7143 29.1502 18.6936 29.1993 18.6565L30.9011 17.3352L32.6511 18.5952C32.7013 18.6312 32.7615 18.6504 32.8231 18.6501C32.8847 18.6498 32.9448 18.6302 32.9946 18.5938C33.0444 18.5574 33.0815 18.5063 33.1006 18.4477C33.1197 18.389 33.1198 18.3258 33.1009 18.2671L32.6634 16.3106L34.108 15.0716C34.1575 15.0352 34.194 14.9838 34.212 14.925C34.2301 14.8662 34.2287 14.8032 34.208 14.7452C34.1874 14.6873 34.1487 14.6375 34.0975 14.6033C34.0464 14.5692 33.9857 14.5524 33.9242 14.5554L31.7875 14.3375L31.0989 12.6365C31.0763 12.5795 31.0368 12.5309 30.9858 12.497C30.9347 12.4631 30.8745 12.4457 30.8133 12.447C30.752 12.4483 30.6927 12.4684 30.6432 12.5045C30.5937 12.5405 30.5563 12.5909 30.5363 12.6487Z" fill="#F7CA18"/>
    <path d="M17.875 10.75H21.375" stroke="#F7CA18" stroke-width="2" stroke-linecap="round" stroke-linejoin="round"/>
    <path d="M18.75 13.375H21.375" stroke="#F7CA18" stroke-width="2" stroke-linecap="round" stroke-linejoin="round"/>
    <path d="M19.625 16H21.375" stroke="#F7CA18" stroke-width="2" stroke-linecap="round" stroke-linejoin="round"/>
    <path d="M20.5 18.625H22.25" stroke="#F7CA18" stroke-width="2" stroke-linecap="round" stroke-linejoin="round"/>
    <path d="M44.125 10.75H40.625" stroke="#F7CA18" stroke-width="2" stroke-linecap="round" stroke-linejoin="round"/>
    <path d="M43.25 13.375H40.625" stroke="#F7CA18" stroke-width="2" stroke-linecap="round" stroke-linejoin="round"/>
    <path d="M42.375 16H40.625" stroke="#F7CA18" stroke-width="2" stroke-linecap="round" stroke-linejoin="round"/>
    <path d="M41.5 18.625H39.75" stroke="#F7CA18" stroke-width="2" stroke-linecap="round" stroke-linejoin="round"/>
    </g>
    <defs>
    <linearGradient id="paint0_linear_47_113" x1="0" y1="0" x2="0" y2="32" gradientUnits="userSpaceOnUse">
    <stop stop-color="#A28AEC"/>
    <stop offset="1" stop-color="#2200FF"/>
    </linearGradient>
    <clipPath id="clip0_47_113">
    <rect width="28" height="28" fill="white" transform="translate(17 2)"/>
    </clipPath>
    </defs>
    </svg>
    