<svg width="64" height="64" xmlns="http://www.w3.org/2000/svg" fill="none">

 <g>
  <title>Layer 1</title>
  <path id="svg_1" fill="#F0F3F9" d="m28,2.31a8,8 0 0 1 8,0l19.713,11.38a8,8 0 0 1 4,6.929l0,22.761a8,8 0 0 1 -4,6.928l-19.713,11.383a8,8 0 0 1 -8,0l-19.713,-11.382a8,8 0 0 1 -4,-6.928l0,-22.761a8,8 0 0 1 4,-6.928l19.713,-11.383l0,0.001z"/>
  <path id="svg_2" fill="#130B43" d="m54.213,16.289l-19.713,-11.382a5,5 0 0 0 -5,0l-19.713,11.383a5,5 0 0 0 -2.5,4.33l0,22.76a5,5 0 0 0 2.5,4.33l19.713,11.383a5,5 0 0 0 5,0l19.713,-11.383a5,5 0 0 0 2.5,-4.33l0,-22.76a5,5 0 0 0 -2.5,-4.33l0,-0.001zm-18.213,-13.98a8,8 0 0 0 -8,0l-19.713,11.382a8,8 0 0 0 -4,6.928l0,22.761a8,8 0 0 0 4,6.928l19.713,11.383a8,8 0 0 0 8,0l19.713,-11.382a8,8 0 0 0 4,-6.928l0,-22.761a8,8 0 0 0 -4,-6.928l-19.713,-11.383z" clip-rule="evenodd" fill-rule="evenodd"/>
  <path id="svg_3" fill="#fff" d="m52.615,18.366l-19.115,-11.036a3,3 0 0 0 -3,0l-19.115,11.036a3,3 0 0 0 -1.5,2.598l0,22.072a3,3 0 0 0 1.5,2.598l19.115,11.036a3,3 0 0 0 3,0l19.115,-11.036a3,3 0 0 0 1.5,-2.598l0,-22.072a3,3 0 0 0 -1.5,-2.598zm-17.615,-13.634a6,6 0 0 0 -6,0l-19.115,11.036a6,6 0 0 0 -3,5.196l0,22.072a6,6 0 0 0 3,5.196l19.115,11.036a6,6 0 0 0 6,0l19.115,-11.036a6,6 0 0 0 3,-5.196l0,-22.072a6,6 0 0 0 -3,-5.196l-19.115,-11.036z" clip-rule="evenodd" fill-rule="evenodd"/>
  <defs stroke="null" transform="translate(19.9804 0) translate(0 22.1688) translate(20.8804 22.4188) scale(1.90493 1.85454) translate(-20.8804 -22.4188) translate(10.9612 22.4213) scale(1.14052 1.14351) translate(-10.9612 -22.4213) translate(9.61074 19.6075) scale(0.876795 0.834569) translate(-9.61074 -19.6075)">
   <clipPath stroke="null" id="svg_5">
    <rect stroke="null" x="0.90002" y="22.4188" transform="translate(19.9804 0)" fill="white" height="19.2" width="22.2505"/>
   </clipPath>
  </defs>
  <path stroke="null" fill="currentColor" d="m34.04197,36.98841c0,1.38593 -1.09178,2.25216 -2.05873,2.25216c-0.96694,0 -2.12696,-0.43073 -2.12696,-2.25216l0,-0.88583l-1.27388,0l0,0.88583c0,2.01711 1.5262,3.65787 3.40084,3.65787c1.87464,0 3.40081,-1.64076 3.40081,-3.65787l0,-0.88583l-1.34209,0l0,0.88583z"/>
  <path stroke="null" fill="currentColor" d="m23.34352,32.71062c0,-1.32353 1.04441,-2.39989 2.32758,-2.39989c1.28232,0 2.32672,1.07725 2.32672,2.39989l1.46609,0c0,-2.15804 -1.70056,-3.913 -3.79282,-3.913c-2.09224,0 -3.79369,1.75496 -3.79369,3.913l1.46611,0z"/>
  <path stroke="null" fill="currentColor" d="m35.42515,32.71062c0,-1.32353 1.04433,-2.39989 2.32671,-2.39989c1.28316,0 2.32748,1.07725 2.32748,2.39989l1.46615,0c0,-2.15804 -1.70141,-3.913 -3.79364,-3.913c-2.09222,0 -3.79286,1.75496 -3.79286,3.913l1.46615,0z"/>
  <path stroke="null" fill="currentColor" d="m43.91098,27.57723l0,-5.20124c0,-1.75283 -0.19385,-2.96897 -0.58156,-3.64851c-0.38786,-0.67953 -1.19507,-1.20347 -2.42209,-1.57181c-0.37034,-0.1143 -0.55551,-0.29848 -0.55551,-0.55252c0,-0.34295 0.41671,-0.5144 1.25012,-0.5144l1.26734,0c1.37745,0 2.42193,0.46995 3.13376,1.40986c0.71183,0.93992 1.06775,2.31165 1.06775,4.11527l0,5.48704c0,1.27016 0.12453,2.24816 0.37328,2.93405c0.24891,0.68588 0.70904,1.3273 1.38039,1.92427c0.19665,0.17783 0.29512,0.32389 0.29512,0.43821c0,0.1143 -0.09848,0.26038 -0.29512,0.43828c-0.68299,0.60953 -1.14591,1.25417 -1.38908,1.93376c-0.24301,0.67942 -0.3646,1.65439 -0.3646,2.92442l0,5.46805c0,1.81632 -0.35871,3.19441 -1.07643,4.13428c-0.71757,0.94003 -1.75926,1.40997 -3.12508,1.40997l-1.26734,0c-0.54403,0 -0.88847,-0.02864 -1.03316,-0.08574c-0.14469,-0.05727 -0.21696,-0.20011 -0.21696,-0.42868c0,-0.31755 0.19091,-0.5272 0.57288,-0.62879l0.69446,-0.17147c1.52788,-0.38096 2.29182,-2.03859 2.29182,-4.97255l0,-5.2013c0,-1.9687 0.43408,-3.35958 1.30223,-4.17246l0.32986,-0.30477c0.16206,-0.15248 0.24301,-0.26679 0.24301,-0.343c0,-0.08891 -0.08095,-0.20323 -0.24301,-0.34295l-0.32986,-0.30483c-0.86815,-0.8129 -1.30223,-2.2037 -1.30223,-4.17244z" clip-rule="evenodd" fill-rule="evenodd"/>
  <path stroke="null" fill="currentColor" d="m19.83896,27.5323l0,-5.20126c0,-1.75281 0.19387,-2.96897 0.58162,-3.64851c0.38775,-0.67953 1.19507,-1.20347 2.42198,-1.57181c0.37038,-0.1143 0.55558,-0.29848 0.55558,-0.55252c0,-0.34293 -0.41668,-0.5144 -1.25006,-0.5144l-1.26742,0c-1.37737,0 -2.42198,0.46995 -3.13381,1.40986c-0.71185,0.93992 -1.06776,2.31167 -1.06776,4.11529l0,5.48704c0,1.27015 -0.12442,2.24816 -0.37327,2.93403c-0.24886,0.68589 -0.70895,1.3273 -1.38027,1.92428c-0.19677,0.17781 -0.29515,0.32387 -0.29515,0.43819c0,0.11432 0.09838,0.26038 0.29515,0.43823c0.68289,0.6097 1.14588,1.25417 1.38894,1.93376c0.24308,0.67959 0.3646,1.65439 0.3646,2.92459l0,5.46788c0,1.81632 0.35882,3.19441 1.07645,4.13445c0.71762,0.93986 1.75932,1.4098 3.12512,1.4098l1.26742,0c0.54402,0 0.88835,-0.02864 1.03304,-0.08574c0.14468,-0.0571 0.21702,-0.20011 0.21702,-0.42868c0,-0.31755 -0.19098,-0.52703 -0.57294,-0.62879l-0.69448,-0.17147c-1.52785,-0.38096 -2.29177,-2.03842 -2.29177,-4.97255l0,-5.2013c0,-1.9687 -0.43405,-3.35958 -1.30214,-4.17246l-0.32988,-0.30477c-0.16205,-0.15242 -0.24306,-0.26674 -0.24306,-0.34295c0,-0.08891 0.08102,-0.20323 0.24306,-0.34295l0.32988,-0.30483c0.86809,-0.8129 1.30214,-2.20369 1.30214,-4.17242z" clip-rule="evenodd" fill-rule="evenodd"/>
 </g>
</svg>