<svg width="156" height="156" viewBox="0 0 156 156" fill="none" xmlns="http://www.w3.org/2000/svg">
    <circle cx="78" cy="78" r="78" fill="#7DC676"/>
    <ellipse cx="78.6965" cy="78.3768" rx="70.3393" ry="71.5942" fill="black"/>
    <g clip-path="url(#clip0_46_49)">
    <path d="M78.0432 102.89C67.6447 103.116 57.2711 101.703 47.2481 98.6982C46.5113 98.4317 45.8702 97.922 45.4151 97.2406C44.9601 96.5593 44.7139 95.7406 44.7112 94.9V74.9239C44.7129 74.8469 44.7307 74.7714 44.7632 74.7029L34.0624 32.0177H34.1181C33.9333 31.2356 33.9723 30.4112 34.2298 29.6536C34.4873 28.896 34.9513 28.2408 35.5603 27.7747C36.1694 27.3086 36.8949 27.0535 37.6408 27.0432C38.3867 27.0329 39.1179 27.2679 39.7378 27.717L61.6781 44.7428L74.3958 17.9942V17.9621L74.4218 17.9299L74.4886 17.8134V17.8455L75.2315 16.8849L75.1943 16.7161L76.3718 15.4299C77.2443 14.9574 78.2544 14.8786 79.1804 15.2109C80.1065 15.5432 80.873 16.2594 81.3118 17.2024L94.0926 45.402L116.044 27.9581C116.637 27.4084 117.376 27.0765 118.154 27.01C118.932 26.9436 119.71 27.1461 120.375 27.5884L119.417 27.1382C119.294 27.103 119.17 27.0762 119.045 27.0578C118.904 27.0501 118.763 27.0501 118.622 27.0578C118.763 27.0501 118.904 27.0501 119.045 27.0578C118.972 27.0538 118.899 27.0538 118.826 27.0578C119.337 27.1228 119.83 27.3031 120.273 27.5869C120.715 27.8707 121.098 28.2519 121.396 28.7057L120.858 27.9019C121.387 28.3929 121.777 29.0369 121.981 29.7586C122.185 30.4803 122.195 31.2499 122.009 31.9775L111.137 75.3862V94.8718C111.14 95.7084 110.899 96.5246 110.448 97.2043C109.997 97.884 109.36 98.3927 108.627 98.658C99.4214 101.467 89.9027 102.891 80.3386 102.89C79.5735 102.909 78.8083 102.909 78.0432 102.89ZM103.776 91.8533V80.1129C95.3178 82.0573 86.6896 83.0007 78.0432 82.9264C69.315 82.9907 60.6057 82.0393 52.0655 80.0888V91.8573C60.5855 93.9658 69.3036 94.9923 78.0432 94.916C86.7023 94.9965 95.3398 93.9685 103.776 91.8533V91.8533ZM78.0618 74.9199C86.7061 75.0833 95.334 74.0472 103.735 71.8371L112.155 40.9406L94.8875 54.2043V54.1842C94.4552 54.522 93.96 54.7538 93.4365 54.8635C92.9129 54.9731 92.3736 54.958 91.856 54.8191C91.3384 54.6802 90.855 54.421 90.4395 54.0594C90.0239 53.6977 89.6862 53.2425 89.4498 52.7252L78.0618 27.717L77.8723 27.2146L76.2529 30.8922C72.9361 39.7348 66.6255 52.7332 66.6255 52.7332C66.3212 53.3961 65.8519 53.9539 65.2705 54.3437C64.6891 54.7336 64.0186 54.9401 63.3346 54.9399V54.9399C63.0672 54.9399 62.5918 54.6625 61.0763 53.517L60.0809 52.8136L59.9509 52.7292C59.3195 52.275 58.6658 51.7887 58.0381 51.3104C56.4149 50.0644 53.0461 47.2308 42.7352 39.5619L42.7798 39.6142L51.6681 71.7688C60.2666 74.2661 69.1668 75.33 78.0618 74.9239V74.9199ZM116.345 27.717V27.7411L116.389 27.7089L116.345 27.717ZM34.0624 31.9815V32.0177V31.9815ZM34.0624 31.9413V31.9815V31.9413ZM34.0624 31.881V31.9292V31.881ZM34.0624 31.8408V31.8649V31.8408ZM33.9844 31.7242L34.0104 31.8328L33.9844 31.7242ZM33.9435 31.5595L33.9844 31.7202L33.9435 31.5595ZM33.9435 31.5595V31.5273V31.5595ZM33.8209 31.0771L33.9361 31.5273L33.8209 31.0771ZM120.858 27.9421C120.712 27.8071 120.557 27.6848 120.393 27.5763L120.709 27.725L120.858 27.9421V27.9421Z" fill="#7DC676"/>
    </g>
    <path d="M69.0985 138.1C69.9656 138.1 70.786 138.1 71.5594 138.1C72.3328 138.088 73.0477 138.076 73.7039 138.064C74.3602 138.041 74.9461 138.012 75.4617 137.977C75.9774 137.941 76.411 137.895 76.7625 137.836V141H61.5574C61.6863 140.297 61.7625 139.283 61.786 137.959C61.8094 136.623 61.8211 135.088 61.8211 133.354V122.982C61.8211 121.248 61.8094 119.719 61.786 118.395C61.7625 117.059 61.6863 116.039 61.5574 115.336H65.161V138.1H69.0985ZM97.1457 141H80.2707V138.012C81.0676 137.438 81.9172 136.775 82.8195 136.025C83.7336 135.264 84.6359 134.449 85.5265 133.582C86.4289 132.715 87.2902 131.812 88.1105 130.875C88.9426 129.926 89.675 128.977 90.3078 128.027C90.9406 127.078 91.4445 126.146 91.8195 125.232C92.2062 124.307 92.3996 123.439 92.3996 122.631C92.3996 121.811 92.2531 121.113 91.9601 120.539C91.6789 119.953 91.3039 119.479 90.8351 119.115C90.3664 118.74 89.8332 118.471 89.2355 118.307C88.6379 118.143 88.0226 118.061 87.3898 118.061C86.8508 118.061 86.2941 118.143 85.7199 118.307C85.1457 118.459 84.5832 118.682 84.0324 118.975C83.4933 119.268 82.9719 119.613 82.468 120.012C81.9758 120.41 81.5363 120.844 81.1496 121.312L80.3586 118.324C80.7101 117.832 81.1672 117.381 81.7297 116.971C82.2922 116.549 82.9133 116.186 83.593 115.881C84.2844 115.564 85.0051 115.324 85.7551 115.16C86.5168 114.984 87.2668 114.896 88.0051 114.896C89.0597 114.896 90.0617 115.072 91.0109 115.424C91.9719 115.764 92.8156 116.256 93.5422 116.9C94.2687 117.533 94.843 118.307 95.2648 119.221C95.6984 120.123 95.9152 121.143 95.9152 122.279C95.9152 123.264 95.7336 124.266 95.3703 125.285C95.0187 126.293 94.5441 127.295 93.9465 128.291C93.3488 129.275 92.6691 130.236 91.9074 131.174C91.1457 132.111 90.3605 133.002 89.5519 133.846C88.7433 134.689 87.9465 135.475 87.1613 136.201C86.3762 136.916 85.6613 137.549 85.0168 138.1H89.4992C90.3664 138.1 91.1867 138.1 91.9601 138.1C92.7336 138.088 93.4426 138.076 94.0871 138.064C94.7433 138.041 95.3293 138.012 95.8449 137.977C96.3605 137.941 96.7941 137.895 97.1457 137.836V141Z" fill="#7DC676"/>
    <defs>
    <clipPath id="clip0_46_49">
    <rect width="89.1429" height="96.4638" fill="white" transform="translate(33 15)"/>
    </clipPath>
    </defs>
    </svg>
    